<svg width="91" height="62" viewBox="0 0 91 62" fill="none" xmlns="http://www.w3.org/2000/svg">
<g clip-path="url(#clip0_3003_25869)">
<path d="M37.6673 1.61342C36.8186 1.93911 35.8806 2.33883 35.5828 2.51648C33.4685 3.80445 32.0838 5.40331 31.0713 7.75719L30.5651 8.94153L30.5204 21.7768L30.4907 34.627H35.0319H39.5731V23.5386C39.5731 17.4392 39.6178 12.2429 39.6624 11.9912C39.722 11.7395 40.0049 11.251 40.3175 10.8957L40.8833 10.2739L52.1396 10.2295L63.3958 10.1999V5.61057V1.02125H51.3058L39.2009 1.03605L37.6673 1.61342Z" fill="white"/>
<path d="M44.0544 14.1082C43.8459 14.2267 43.6375 14.4339 43.5779 14.582C43.5184 14.7448 43.4588 16.5065 43.4588 18.5199L43.4439 22.1914H49.3996H55.3553V23.5237C55.3553 24.7525 55.3255 24.9005 54.9831 25.2262L54.6257 25.5963H49.0274H43.4439V30.1116V34.627L50.0398 34.5825C56.9782 34.5381 57.0824 34.5233 58.7054 33.7979C60.9387 32.7912 62.8297 30.9555 63.5146 29.1494C64.2293 27.2692 64.1995 27.6393 64.259 20.5925L64.3037 13.901H54.3577C46.2729 13.9158 44.3373 13.9454 44.0544 14.1082Z" fill="white"/>
<path d="M60.4623 45.3007C59.9412 45.9669 59.9561 46.0261 60.6112 46.8256L60.9537 47.2549L61.2663 46.9292C61.4301 46.7515 61.6535 46.4555 61.7577 46.2482C61.9364 45.9225 61.9066 45.8189 61.5343 45.2859C61.311 44.9602 61.0728 44.6937 61.0281 44.6937C60.9686 44.6937 60.7154 44.975 60.4623 45.3007Z" fill="white"/>
<path d="M9.00543 45.286C8.52898 45.4341 7.87385 45.7449 7.54629 45.967C6.72738 46.5296 5.68514 47.7139 5.4618 48.3209C5.35758 48.6022 5.22357 48.839 5.16402 48.839C5.11935 48.839 4.94068 49.4164 4.79179 50.1122C4.56845 51.1781 4.55356 51.5778 4.68756 52.4513C5.11935 55.4862 7.5314 57.692 10.7028 57.9733C11.5068 58.0473 11.9237 57.9881 12.832 57.7068C13.4573 57.5143 13.9635 57.3071 13.9635 57.2479C13.9635 57.1738 14.038 57.1294 14.1273 57.1294C14.2167 57.1294 14.5442 56.9518 14.8718 56.7149L15.4525 56.3152V53.532V50.7636H13.0255H10.6135L10.4199 51.3558C10.3306 51.6815 10.2412 52.0072 10.2412 52.096C10.2412 52.17 11.0006 52.2588 12.0726 52.2736L13.8891 52.318L13.9338 53.7837C13.9784 55.4121 14.0082 55.3529 12.7426 56.0191C12.2066 56.3004 11.8046 56.3892 11.075 56.3892C9.1841 56.3892 7.56118 55.3529 6.74227 53.6356C6.37004 52.8658 6.34026 52.6733 6.39982 51.4446C6.48916 49.3276 7.35273 47.8472 8.94588 47.0477C10.2115 46.3963 12.3257 46.6036 13.6211 47.5067L14.2464 47.936L14.7229 47.329L15.1993 46.7368L14.842 46.4556C13.8444 45.7005 11.6706 44.9751 10.4944 45.0047C10.1519 45.0047 9.48189 45.138 9.00543 45.286Z" fill="white"/>
<path d="M47.956 45.1824L47.3158 45.3452V47.403V49.4756L46.9138 49.0611C46.2587 48.4097 45.3504 48.0988 44.1444 48.0988C43.3702 48.0988 42.9235 48.1729 42.5513 48.3801C42.2684 48.543 41.8812 48.7354 41.7175 48.8242C41.3154 49.0019 40.6305 49.8309 40.1839 50.66C39.7223 51.5038 39.6181 53.606 39.9903 54.6571C40.7645 56.8186 42.7895 57.9881 45.0229 57.5736C45.544 57.4699 45.9758 57.3367 45.9758 57.2627C45.9758 57.1887 46.0651 57.1294 46.1693 57.1294C46.2884 57.1294 46.5267 56.9666 46.7202 56.7593C47.2562 56.1968 47.4647 56.2856 47.4647 57.0702V57.7512L48.1049 57.6476C48.4474 57.5884 48.7452 57.5292 48.7452 57.5144C48.7601 57.5144 48.7898 54.7015 48.8196 51.2966C48.8643 47.2254 48.8345 45.0788 48.7303 45.064C48.6558 45.0492 48.2985 45.1084 47.956 45.1824ZM46.3331 50.4527C47.5243 51.563 47.8369 53.2803 47.0925 54.5535C46.3629 55.7971 44.7995 56.4632 43.4744 56.0931C42.8044 55.9155 41.8068 55.1605 41.8068 54.82C41.8068 54.7015 41.7621 54.6127 41.6877 54.6127C41.509 54.6127 41.2112 53.4876 41.2112 52.777C41.2112 50.7044 43.2213 49.1055 45.0824 49.6977C45.4546 49.8161 46.0056 50.1566 46.3331 50.4527Z" fill="white"/>
<path d="M51.4842 51.5185V57.7659L52.05 57.6622C52.3477 57.6178 52.7497 57.5734 52.9433 57.5734H53.2709V54.7606V51.9478H55.132H56.9932V51.2076V50.4674H55.132H53.2709V48.7057C53.2709 47.0624 53.2858 46.9291 53.5687 46.8403C53.7324 46.7811 54.7896 46.7663 55.9211 46.7811L57.961 46.8107L57.9312 46.3814C57.8419 45.197 58.1099 45.2859 54.6109 45.2859H51.4842V51.5185Z" fill="white"/>
<path d="M86.5786 48.0545C86.3404 48.0989 85.8639 48.395 85.5066 48.7355C83.7645 50.4083 84.5388 52.8066 86.9955 53.3544C87.2486 53.4136 87.7548 53.5913 88.1419 53.7541C88.7524 54.0058 88.8566 54.1242 88.946 54.5683C89.08 55.2493 88.8417 55.6935 88.2015 56.0044C87.5464 56.3153 86.8317 56.2116 86.0872 55.7083C85.8043 55.5158 85.5214 55.353 85.4619 55.353C85.2981 55.353 84.5388 56.0932 84.5388 56.2412C84.5388 56.3301 84.8514 56.6113 85.2534 56.8926C86.5488 57.8401 88.6035 57.8549 89.5862 56.9518C91.2538 55.3974 90.8369 53.2656 88.678 52.2737C88.2908 52.096 87.7995 51.948 87.6059 51.948C87.3975 51.948 87.189 51.874 87.1444 51.7999C87.0997 51.7111 86.9359 51.6519 86.787 51.6519C86.6381 51.6519 86.3999 51.4298 86.2361 51.1338C85.9681 50.6304 85.9681 50.6008 86.2361 50.0975C86.3999 49.8014 86.6828 49.5349 86.8764 49.4905C87.457 49.3424 88.3653 49.5201 88.7226 49.8606C89.1693 50.2751 89.3033 50.2455 89.7947 49.6533L90.1967 49.1648L89.6011 48.6911C88.7673 48.0397 87.9037 47.862 86.5786 48.0545Z" fill="white"/>
<path d="M20.2764 48.469C18.7131 49.2388 17.6559 50.882 17.5517 52.6734C17.4773 54.3907 17.9984 55.575 19.3831 56.789C20.2913 57.5884 21.8547 57.9881 23.0756 57.7364C24.1774 57.4996 24.9368 57.085 25.6961 56.2708C26.6639 55.2345 26.9617 54.4795 26.9766 52.9843C26.9915 51.9183 26.9319 51.5927 26.6044 50.9117C26.0981 49.8606 25.2346 48.9723 24.1923 48.4838C23.0309 47.936 21.3485 47.936 20.2764 48.469ZM23.433 49.8902C25.1601 50.7044 25.9046 52.7178 25.1154 54.3907C24.9368 54.7608 24.7432 55.0569 24.6836 55.0569C24.6092 55.0569 24.505 55.1901 24.4603 55.3529C24.4008 55.5158 24.2965 55.6194 24.2221 55.575C24.1476 55.5158 24.0881 55.5454 24.0881 55.6342C24.0881 55.7082 23.7903 55.8859 23.4181 56.0191C22.0631 56.5373 20.4998 56.0043 19.666 54.7312C19.2938 54.1834 19.2491 53.9761 19.2491 52.8954C19.2491 51.6963 19.2491 51.6815 19.8595 50.9709C20.5444 50.1418 21.5271 49.5793 22.2865 49.5793C22.5694 49.5793 23.0905 49.7125 23.433 49.8902Z" fill="white"/>
<path d="M31.5775 48.4689C29.8652 49.3275 28.9123 50.9856 28.9421 53.1322C28.957 54.583 29.4335 55.6341 30.5501 56.6556C31.2351 57.2774 31.5031 57.4106 32.5006 57.6475C33.7513 57.9288 34.5405 57.8548 35.6869 57.3218C36.3867 56.9813 37.3694 56.019 37.7416 55.2788C39.1412 52.5548 38.0096 49.4904 35.1807 48.306C34.8829 48.1876 34.1831 48.0988 33.4982 48.0988C32.5602 48.0988 32.188 48.1728 31.5775 48.4689ZM34.734 49.8605C36.4612 50.6599 37.2354 52.7177 36.4612 54.3906C35.5231 56.404 32.6644 56.8333 31.3095 55.1604C30.7735 54.4942 30.7139 54.4054 30.6544 54.1685C30.297 52.7917 30.3268 52.4216 30.8777 51.3557C31.652 49.816 33.2898 49.1943 34.734 49.8605Z" fill="white"/>
<path d="M68.5625 48.2766C67.4904 48.4099 66.9544 48.7208 66.5077 49.4462C66.0015 50.2604 65.8079 50.1864 65.7484 49.1649L65.7037 48.3062L65.0784 48.4395L64.4381 48.5579V53.2213V57.8994L64.9295 57.7958C66.0164 57.5737 65.9271 57.7958 65.9271 55.1458C65.9271 52.8215 66.0015 52.2886 66.4631 51.2523C66.746 50.6157 67.5053 50.0531 68.2498 49.9495C68.8007 49.8607 68.8602 49.7867 69.1729 49.0317C69.3665 48.5727 69.5005 48.2026 69.4707 48.1878C69.4409 48.173 69.0389 48.2026 68.5625 48.2766Z" fill="white"/>
<path d="M73.8329 48.3357C73.55 48.4541 73.1778 48.7058 73.014 48.913C72.5822 49.4164 72.3589 49.372 72.2993 48.7946L72.2546 48.306L71.6293 48.4393L70.989 48.5577V53.2211C70.989 57.6031 71.0039 57.8844 71.2571 57.8104C71.3911 57.7808 71.7186 57.7068 71.9866 57.6475L72.4482 57.5587L72.5077 54.3462C72.5822 50.6451 72.6566 50.349 73.6244 49.8457C74.22 49.5348 74.2945 49.52 74.89 49.7273C75.9769 50.0974 76.0514 50.3934 76.0514 54.4054V57.8252L76.7809 57.6772L77.5254 57.5439L77.5701 54.2426C77.6147 51.1781 77.6445 50.8968 77.9274 50.5119C78.4188 49.8457 79.193 49.5348 79.8779 49.7125C80.9202 49.9937 80.9797 50.2602 80.9648 54.2426C80.9499 58.1361 80.8606 57.8252 82.0517 57.6327L82.6026 57.5291V54.1093C82.5877 50.9264 82.5729 50.6303 82.2602 49.8753C81.4562 47.9063 78.9994 47.5066 77.451 49.1055C77.183 49.3868 76.9447 49.5496 76.9447 49.4756C76.9447 49.3868 76.7065 49.0759 76.4236 48.7946C75.7089 48.084 74.7858 47.9211 73.8329 48.3357Z" fill="white"/>
<path d="M60.4626 48.4985L60.1201 48.5577V53.147V57.7363L60.8348 57.6327C61.2219 57.5883 61.5495 57.5291 61.5644 57.5143C61.5793 57.4995 61.6091 55.4565 61.624 52.9842L61.6388 48.4689L61.2219 48.454C60.9837 48.4392 60.6413 48.454 60.4626 48.4985Z" fill="white"/>
</g>
<defs>
<clipPath id="clip0_3003_25869">
<rect width="90.8242" height="60.5495" fill="white" transform="translate(0.117188 0.725098)"/>
</clipPath>
</defs>
</svg>
