<svg width="32" height="32" viewBox="0 0 32 32" fill="none" xmlns="http://www.w3.org/2000/svg">
<g clip-path="url(#clip0_2461_70792)">
<path d="M30.27 3.79028C30.4636 3.79028 30.6493 3.86719 30.7862 4.0041C30.9231 4.141 31 4.32667 31 4.52028V23.2103C31 23.4039 30.9231 23.5896 30.7862 23.7265C30.6493 23.8634 30.4636 23.9403 30.27 23.9403H1.73001C1.5364 23.9403 1.35071 23.8634 1.21381 23.7265C1.0769 23.5896 1 23.4039 1 23.2103V4.52028C1 4.32667 1.0769 4.141 1.21381 4.0041C1.35071 3.86719 1.5364 3.79028 1.73001 3.79028H30.27ZM30.27 2.79028H1.73001C1.27119 2.79028 0.831152 2.97255 0.506714 3.29699C0.182276 3.62143 0 4.06146 0 4.52028V23.2103C0.00262479 23.6683 0.185742 24.1068 0.509613 24.4307C0.833484 24.7546 1.272 24.9377 1.73001 24.9403H30.27C30.728 24.9377 31.1665 24.7546 31.4904 24.4307C31.8143 24.1068 31.9974 23.6683 32 23.2103V4.52028C32 4.06146 31.8177 3.62143 31.4933 3.29699C31.1688 2.97255 30.7288 2.79028 30.27 2.79028Z" fill="#012842"/>
<path d="M32 20.1401H0.500031V21.1401H32V20.1401Z" fill="#012842"/>
<path d="M19.5799 24.71H18.5799V28.71H19.5799V24.71Z" fill="#012842"/>
<path d="M13.42 24.71H12.42V28.71H13.42V24.71Z" fill="#012842"/>
<path d="M23.58 29.2102H8.42004C8.28744 29.2102 8.16024 29.1575 8.06647 29.0638C7.9727 28.97 7.92004 28.8428 7.92004 28.7102C7.92004 28.5776 7.9727 28.4504 8.06647 28.3567C8.16024 28.2629 8.28744 28.2102 8.42004 28.2102H23.58C23.7126 28.2102 23.8398 28.2629 23.9336 28.3567C24.0274 28.4504 24.08 28.5776 24.08 28.7102C24.08 28.8428 24.0274 28.97 23.9336 29.0638C23.8398 29.1575 23.7126 29.2102 23.58 29.2102Z" fill="#012842"/>
<g clip-path="url(#clip1_2461_70792)">
<path d="M23.3703 15.8889C23.21 15.8894 23.0537 15.9395 22.923 16.0324C22.7923 16.1252 22.6935 16.2562 22.6402 16.4074H21.037V15.3704H22.5925C22.6613 15.3704 22.7272 15.3431 22.7759 15.2945C22.8245 15.2458 22.8518 15.1799 22.8518 15.1111C22.8518 15.0424 22.8245 14.9764 22.7759 14.9278C22.7272 14.8792 22.6613 14.8519 22.5925 14.8519H21.037V13.8148H22.8518C23.1378 13.8148 23.3703 13.5823 23.3703 13.2963V12.7301C23.5215 12.6768 23.6525 12.578 23.7454 12.4473C23.8382 12.3166 23.8883 12.1604 23.8888 12C23.8888 11.5712 23.5399 11.2222 23.111 11.2222C22.6822 11.2222 22.3333 11.5712 22.3333 12C22.3333 12.3376 22.5508 12.6228 22.8518 12.7301V13.2963H21.037V13.0371C21.037 12.4651 20.5719 12 19.9999 12H19.7407V10.1852H20.3069C20.3602 10.3364 20.459 10.4674 20.5897 10.5603C20.7204 10.6531 20.8766 10.7032 21.037 10.7037C21.4658 10.7037 21.8148 10.3548 21.8148 9.92595C21.8148 9.49714 21.4658 9.14818 21.037 9.14818C20.8766 9.14869 20.7204 9.1988 20.5897 9.29164C20.459 9.38448 20.3602 9.51549 20.3069 9.66669H19.7407C19.4547 9.66669 19.2222 9.89925 19.2222 10.1852V12H18.1851V10.4445C18.1851 10.3757 18.1578 10.3098 18.1092 10.2611C18.0606 10.2125 17.9946 10.1852 17.9259 10.1852C17.8571 10.1852 17.7912 10.2125 17.7425 10.2611C17.6939 10.3098 17.6666 10.3757 17.6666 10.4445V12H16.6296V10.3968C16.7808 10.3435 16.9118 10.2447 17.0046 10.114C17.0975 9.98326 17.1476 9.82702 17.1481 9.66669C17.1481 9.23788 16.7991 8.88892 16.3703 8.88892C15.9415 8.88892 15.5925 9.23788 15.5925 9.66669C15.5925 10.0042 15.81 10.2894 16.111 10.3968V12H15.074V10.4445C15.074 10.3757 15.0467 10.3098 14.9981 10.2611C14.9495 10.2125 14.8835 10.1852 14.8148 10.1852C14.746 10.1852 14.68 10.2125 14.6314 10.2611C14.5828 10.3098 14.5555 10.3757 14.5555 10.4445V12H13.5185V10.1852C13.5185 9.89925 13.2859 9.66669 12.9999 9.66669H12.4337C12.3804 9.51549 12.2816 9.38448 12.1509 9.29164C12.0202 9.1988 11.864 9.14869 11.7036 9.14818C11.2748 9.14818 10.9259 9.49714 10.9259 9.92595C10.9259 10.3548 11.2748 10.7037 11.7036 10.7037C11.864 10.7032 12.0202 10.6531 12.1509 10.5603C12.2816 10.4674 12.3804 10.3364 12.4337 10.1852H12.9999V12H12.7407C12.1688 12 11.7036 12.4651 11.7036 13.0371V13.2963H9.88883V12.7301C10.04 12.6768 10.171 12.578 10.2639 12.4473C10.3567 12.3166 10.4068 12.1604 10.4073 12C10.4073 11.5712 10.0584 11.2222 9.62957 11.2222C9.20075 11.2222 8.85179 11.5712 8.85179 12C8.85179 12.3376 9.06931 12.6228 9.37031 12.7301V13.2963C9.37031 13.5823 9.60286 13.8148 9.88883 13.8148H11.7036V14.8519H10.1481C10.0793 14.8519 10.0134 14.8792 9.96476 14.9278C9.91614 14.9764 9.88883 15.0424 9.88883 15.1111C9.88883 15.1799 9.91614 15.2458 9.96476 15.2945C10.0134 15.3431 10.0793 15.3704 10.1481 15.3704H11.7036V16.4074H10.1004C10.0471 16.2562 9.9483 16.1252 9.81759 16.0324C9.68687 15.9395 9.53063 15.8894 9.37031 15.8889C8.94149 15.8889 8.59253 16.2379 8.59253 16.6667C8.59253 17.0955 8.94149 17.4445 9.37031 17.4445C9.53063 17.444 9.68687 17.3938 9.81759 17.301C9.9483 17.2082 10.0471 17.0772 10.1004 16.926H11.7036V17.963H10.1481C10.0793 17.963 10.0134 17.9903 9.96476 18.0389C9.91614 18.0875 9.88883 18.1535 9.88883 18.2222C9.88883 18.291 9.91614 18.357 9.96476 18.4056C10.0134 18.4542 10.0793 18.4815 10.1481 18.4815H11.7036V19.5185H9.88883C9.60286 19.5185 9.37031 19.7511 9.37031 20.0371V20.6033C9.2191 20.6566 9.08809 20.7554 8.99525 20.8861C8.90242 21.0168 8.8523 21.173 8.85179 21.3334C8.85179 21.7622 9.20075 22.1111 9.62957 22.1111C10.0584 22.1111 10.4073 21.7622 10.4073 21.3334C10.4068 21.173 10.3567 21.0168 10.2639 20.8861C10.171 20.7554 10.04 20.6566 9.88883 20.6033V20.0371H11.7036V20.2963C11.7036 20.8682 12.1688 21.3334 12.7407 21.3334H12.9999V23.1482H12.4337C12.3804 22.997 12.2816 22.866 12.1509 22.7731C12.0202 22.6803 11.864 22.6302 11.7036 22.6297C11.2748 22.6297 10.9259 22.9786 10.9259 23.4074C10.9259 23.8362 11.2748 24.1852 11.7036 24.1852C11.864 24.1847 12.0202 24.1346 12.1509 24.0417C12.2816 23.9489 12.3804 23.8179 12.4337 23.6667H12.9999C13.2859 23.6667 13.5185 23.4341 13.5185 23.1482V21.3334H14.5555V22.8889C14.5555 22.9577 14.5828 23.0236 14.6314 23.0722C14.68 23.1209 14.746 23.1482 14.8148 23.1482C14.8835 23.1482 14.9495 23.1209 14.9981 23.0722C15.0467 23.0236 15.074 22.9577 15.074 22.8889V21.3334H16.111V22.9366C15.9598 22.9899 15.8288 23.0887 15.736 23.2194C15.6432 23.3501 15.593 23.5064 15.5925 23.6667C15.5925 24.0955 15.9415 24.4445 16.3703 24.4445C16.7991 24.4445 17.1481 24.0955 17.1481 23.6667C17.1476 23.5064 17.0975 23.3501 17.0046 23.2194C16.9118 23.0887 16.7808 22.9899 16.6296 22.9366V21.3334H17.6666V22.8889C17.6666 22.9577 17.6939 23.0236 17.7425 23.0722C17.7912 23.1209 17.8571 23.1482 17.9259 23.1482C17.9946 23.1482 18.0606 23.1209 18.1092 23.0722C18.1578 23.0236 18.1851 22.9577 18.1851 22.8889V21.3334H19.2222V23.1482C19.2222 23.4341 19.4547 23.6667 19.7407 23.6667H20.3069C20.3602 23.8179 20.459 23.9489 20.5897 24.0417C20.7204 24.1346 20.8766 24.1847 21.037 24.1852C21.4658 24.1852 21.8148 23.8362 21.8148 23.4074C21.8148 22.9786 21.4658 22.6297 21.037 22.6297C20.8766 22.6302 20.7204 22.6803 20.5897 22.7731C20.459 22.866 20.3602 22.997 20.3069 23.1482H19.7407V21.3334H19.9999C20.5719 21.3334 21.037 20.8682 21.037 20.2963V20.0371H22.8518V20.6033C22.7006 20.6566 22.5696 20.7554 22.4767 20.8861C22.3839 21.0168 22.3338 21.173 22.3333 21.3334C22.3333 21.7622 22.6822 22.1111 23.111 22.1111C23.5399 22.1111 23.8888 21.7622 23.8888 21.3334C23.8883 21.173 23.8382 21.0168 23.7454 20.8861C23.6525 20.7554 23.5215 20.6566 23.3703 20.6033V20.0371C23.3703 19.7511 23.1378 19.5185 22.8518 19.5185H21.037V18.4815H22.5925C22.6613 18.4815 22.7272 18.4542 22.7759 18.4056C22.8245 18.357 22.8518 18.291 22.8518 18.2222C22.8518 18.1535 22.8245 18.0875 22.7759 18.0389C22.7272 17.9903 22.6613 17.963 22.5925 17.963H21.037V16.926H22.6402C22.6935 17.0772 22.7923 17.2082 22.923 17.301C23.0537 17.3938 23.21 17.444 23.3703 17.4445C23.7991 17.4445 24.1481 17.0955 24.1481 16.6667C24.1481 16.2379 23.7991 15.8889 23.3703 15.8889ZM23.111 11.7408C23.1798 11.7408 23.2458 11.7681 23.2944 11.8167C23.343 11.8653 23.3703 11.9313 23.3703 12C23.3703 12.0688 23.343 12.1347 23.2944 12.1834C23.2458 12.232 23.1798 12.2593 23.111 12.2593C23.0423 12.2593 22.9763 12.232 22.9277 12.1834C22.8791 12.1347 22.8518 12.0688 22.8518 12C22.8518 11.9313 22.8791 11.8653 22.9277 11.8167C22.9763 11.7681 23.0423 11.7408 23.111 11.7408ZM21.037 9.66669C21.1057 9.66669 21.1717 9.69401 21.2203 9.74263C21.2689 9.79125 21.2962 9.85719 21.2962 9.92595C21.2962 9.99471 21.2689 10.0607 21.2203 10.1093C21.1717 10.1579 21.1057 10.1852 21.037 10.1852C20.9682 10.1852 20.9023 10.1579 20.8536 10.1093C20.805 10.0607 20.7777 9.99471 20.7777 9.92595C20.7777 9.85719 20.805 9.79125 20.8536 9.74263C20.9023 9.69401 20.9682 9.66669 21.037 9.66669ZM16.3703 9.40743C16.4391 9.40743 16.505 9.43475 16.5536 9.48337C16.6023 9.53199 16.6296 9.59793 16.6296 9.66669C16.6296 9.73545 16.6023 9.8014 16.5536 9.85002C16.505 9.89864 16.4391 9.92595 16.3703 9.92595C16.3015 9.92595 16.2356 9.89864 16.187 9.85002C16.1384 9.8014 16.111 9.73545 16.111 9.66669C16.111 9.59793 16.1384 9.53199 16.187 9.48337C16.2356 9.43475 16.3015 9.40743 16.3703 9.40743ZM11.7036 10.1852C11.6349 10.1852 11.5689 10.1579 11.5203 10.1093C11.4717 10.0607 11.4444 9.99471 11.4444 9.92595C11.4444 9.85719 11.4717 9.79125 11.5203 9.74263C11.5689 9.69401 11.6349 9.66669 11.7036 9.66669C11.7724 9.66669 11.8383 9.69401 11.887 9.74263C11.9356 9.79125 11.9629 9.85719 11.9629 9.92595C11.9629 9.99471 11.9356 10.0607 11.887 10.1093C11.8383 10.1579 11.7724 10.1852 11.7036 10.1852ZM9.62957 11.7408C9.69833 11.7408 9.76427 11.7681 9.81289 11.8167C9.86151 11.8653 9.88883 11.9313 9.88883 12C9.88883 12.0688 9.86151 12.1347 9.81289 12.1834C9.76427 12.232 9.69833 12.2593 9.62957 12.2593C9.56081 12.2593 9.49486 12.232 9.44624 12.1834C9.39762 12.1347 9.37031 12.0688 9.37031 12C9.37031 11.9313 9.39762 11.8653 9.44624 11.8167C9.49486 11.7681 9.56081 11.7408 9.62957 11.7408ZM9.37031 16.926C9.30155 16.926 9.2356 16.8986 9.18698 16.85C9.13836 16.8014 9.11105 16.7355 9.11105 16.6667C9.11105 16.5979 9.13836 16.532 9.18698 16.4834C9.2356 16.4347 9.30155 16.4074 9.37031 16.4074C9.43907 16.4074 9.50501 16.4347 9.55363 16.4834C9.60225 16.532 9.62957 16.5979 9.62957 16.6667C9.62957 16.7355 9.60225 16.8014 9.55363 16.85C9.50501 16.8986 9.43907 16.926 9.37031 16.926ZM9.62957 21.5926C9.56081 21.5926 9.49486 21.5653 9.44624 21.5167C9.39762 21.4681 9.37031 21.4021 9.37031 21.3334C9.37031 21.2646 9.39762 21.1987 9.44624 21.15C9.49486 21.1014 9.56081 21.0741 9.62957 21.0741C9.69833 21.0741 9.76427 21.1014 9.81289 21.15C9.86151 21.1987 9.88883 21.2646 9.88883 21.3334C9.88883 21.4021 9.86151 21.4681 9.81289 21.5167C9.76427 21.5653 9.69833 21.5926 9.62957 21.5926ZM11.7036 23.6667C11.6349 23.6667 11.5689 23.6394 11.5203 23.5908C11.4717 23.5421 11.4444 23.4762 11.4444 23.4074C11.4444 23.3387 11.4717 23.2727 11.5203 23.2241C11.5689 23.1755 11.6349 23.1482 11.7036 23.1482C11.7724 23.1482 11.8383 23.1755 11.887 23.2241C11.9356 23.2727 11.9629 23.3387 11.9629 23.4074C11.9629 23.4762 11.9356 23.5421 11.887 23.5908C11.8383 23.6394 11.7724 23.6667 11.7036 23.6667ZM16.3703 23.926C16.3015 23.926 16.2356 23.8986 16.187 23.85C16.1384 23.8014 16.111 23.7355 16.111 23.6667C16.111 23.5979 16.1384 23.532 16.187 23.4834C16.2356 23.4347 16.3015 23.4074 16.3703 23.4074C16.4391 23.4074 16.505 23.4347 16.5536 23.4834C16.6023 23.532 16.6296 23.5979 16.6296 23.6667C16.6296 23.7355 16.6023 23.8014 16.5536 23.85C16.505 23.8986 16.4391 23.926 16.3703 23.926ZM21.037 23.1482C21.1057 23.1482 21.1717 23.1755 21.2203 23.2241C21.2689 23.2727 21.2962 23.3387 21.2962 23.4074C21.2962 23.4762 21.2689 23.5421 21.2203 23.5908C21.1717 23.6394 21.1057 23.6667 21.037 23.6667C20.9682 23.6667 20.9023 23.6394 20.8536 23.5908C20.805 23.5421 20.7777 23.4762 20.7777 23.4074C20.7777 23.3387 20.805 23.2727 20.8536 23.2241C20.9023 23.1755 20.9682 23.1482 21.037 23.1482ZM23.111 21.5926C23.0423 21.5926 22.9763 21.5653 22.9277 21.5167C22.8791 21.4681 22.8518 21.4021 22.8518 21.3334C22.8518 21.2646 22.8791 21.1987 22.9277 21.15C22.9763 21.1014 23.0423 21.0741 23.111 21.0741C23.1798 21.0741 23.2458 21.1014 23.2944 21.15C23.343 21.1987 23.3703 21.2646 23.3703 21.3334C23.3703 21.4021 23.343 21.4681 23.2944 21.5167C23.2458 21.5653 23.1798 21.5926 23.111 21.5926ZM20.5185 20.2963C20.5185 20.5823 20.2859 20.8148 19.9999 20.8148H12.7407C12.4547 20.8148 12.2222 20.5823 12.2222 20.2963V13.0371C12.2222 12.7511 12.4547 12.5185 12.7407 12.5185H19.9999C20.2859 12.5185 20.5185 12.7511 20.5185 13.0371V20.2963ZM23.3703 16.926C23.3015 16.926 23.2356 16.8986 23.187 16.85C23.1384 16.8014 23.111 16.7355 23.111 16.6667C23.111 16.5979 23.1384 16.532 23.187 16.4834C23.2356 16.4347 23.3015 16.4074 23.3703 16.4074C23.4391 16.4074 23.505 16.4347 23.5536 16.4834C23.6023 16.532 23.6296 16.5979 23.6296 16.6667C23.6296 16.7355 23.6023 16.8014 23.5536 16.85C23.505 16.8986 23.4391 16.926 23.3703 16.926Z" fill="#005BAA"/>
<path d="M15.2067 14.6472C15.1655 14.4626 15.0045 14.3335 14.815 14.3335C14.6255 14.3335 14.4645 14.4626 14.423 14.6477L13.5247 18.6846C13.5098 18.7518 13.5223 18.8221 13.5592 18.8801C13.5961 18.938 13.6546 18.979 13.7217 18.9939C13.7888 19.0085 13.859 18.9959 13.9169 18.959C13.9748 18.9222 14.0158 18.8639 14.031 18.7969L14.332 17.4443H15.2977L15.5987 18.7969C15.6136 18.8641 15.6546 18.9226 15.7126 18.9596C15.7706 18.9965 15.841 19.009 15.9082 18.9941C15.9753 18.9792 16.0339 18.9382 16.0708 18.8802C16.1078 18.8222 16.1202 18.7518 16.1053 18.6846L15.2067 14.6472ZM14.4476 16.9261L14.8153 15.2741L15.1829 16.9261H14.4476ZM18.4446 14.852C18.5134 14.852 18.5793 14.8247 18.628 14.7761C18.6766 14.7275 18.7039 14.6615 18.7039 14.5928C18.7039 14.524 18.6766 14.4581 18.628 14.4094C18.5793 14.3608 18.5134 14.3335 18.4446 14.3335H16.8891C16.8203 14.3335 16.7544 14.3608 16.7057 14.4094C16.6571 14.4581 16.6298 14.524 16.6298 14.5928C16.6298 14.6615 16.6571 14.7275 16.7057 14.7761C16.7544 14.8247 16.8203 14.852 16.8891 14.852H17.4076V18.4816H16.8891C16.8203 18.4816 16.7544 18.509 16.7057 18.5576C16.6571 18.6062 16.6298 18.6721 16.6298 18.7409C16.6298 18.8097 16.6571 18.8756 16.7057 18.9242C16.7544 18.9728 16.8203 19.0002 16.8891 19.0002H18.4446C18.5134 19.0002 18.5793 18.9728 18.628 18.9242C18.6766 18.8756 18.7039 18.8097 18.7039 18.7409C18.7039 18.6721 18.6766 18.6062 18.628 18.5576C18.5793 18.509 18.5134 18.4816 18.4446 18.4816H17.9261V14.852H18.4446Z" fill="#005BAA"/>
</g>
</g>
<defs>
<clipPath id="clip0_2461_70792">
<rect width="32" height="32" fill="white"/>
</clipPath>
<clipPath id="clip1_2461_70792">
<rect width="15.5556" height="15.5556" fill="white" transform="translate(8.59253 8.88892)"/>
</clipPath>
</defs>
</svg>
