<svg width="25" height="25" viewBox="0 0 25 25" fill="none" xmlns="http://www.w3.org/2000/svg">
                                    <path d="M18.5127 16.1694C17.7279 15.394 16.748 15.394 15.9681 16.1694C15.3732 16.7596 14.7783 17.3499 14.1934 17.9502C14.0334 18.1153 13.8984 18.1503 13.7035 18.0403C13.3185 17.8302 12.9086 17.6601 12.5386 17.43C10.8139 16.3444 9.3691 14.9488 8.08929 13.378C7.45439 12.5976 6.88947 11.7622 6.49453 10.8218C6.41454 10.6317 6.42954 10.5066 6.58452 10.3516C7.17943 9.77629 7.75934 9.18601 8.34425 8.59573C9.15913 7.77533 9.15913 6.81487 8.33925 5.98947C7.87432 5.51925 7.40939 5.05903 6.94446 4.5888C6.46453 4.10857 5.9896 3.62334 5.50468 3.14811C4.71979 2.38274 3.73994 2.38274 2.96006 3.15311C2.36015 3.74339 1.78523 4.34869 1.17532 4.92896C0.610406 5.46422 0.325448 6.11954 0.265457 6.8849C0.170472 8.1305 0.475426 9.30607 0.905362 10.4516C1.78523 12.8228 3.12503 14.9288 4.74979 16.8597C6.94446 19.4709 9.56407 21.5369 12.6286 23.0277C14.0084 23.698 15.4382 24.2132 16.993 24.2983C18.0628 24.3583 18.9927 24.0882 19.7376 23.2528C20.2475 22.6825 20.8224 22.1622 21.3623 21.617C22.1622 20.8066 22.1672 19.8261 21.3723 19.0257C20.4225 18.0703 19.4676 17.1198 18.5127 16.1694Z" fill="white"></path>
                                    <path d="M17.5565 12.1825L19.4008 11.8674C19.1109 10.1715 18.3112 8.63581 17.0967 7.41522C15.8122 6.1296 14.1879 5.31921 12.3986 5.06909L12.1387 6.92498C13.5231 7.12008 14.7826 7.74538 15.7772 8.74086C16.7169 9.68131 17.3316 10.8719 17.5565 12.1825Z" fill="white"></path>
                                    <path d="M20.4369 4.15872C18.3075 2.02769 15.6131 0.682045 12.6388 0.266846L12.3789 2.12274C14.9483 2.48291 17.2777 3.64847 19.1173 5.48435C20.8618 7.23019 22.0065 9.43625 22.4214 11.8624L24.266 11.5473C23.7811 8.73592 22.4564 6.18469 20.4369 4.15872Z" fill="white"></path>
                                </svg>