<svg width="793" height="315" viewBox="0 0 793 315" fill="none" xmlns="http://www.w3.org/2000/svg">
<path d="M120 73C122.589 73.0052 125.142 73.0756 127.727 73.1992C128.508 73.2355 129.289 73.2719 130.093 73.3093C131.753 73.3895 133.412 73.473 135.072 73.5593C137.593 73.6859 140.114 73.7876 142.637 73.8887C144.25 73.9698 145.863 74.0524 147.477 74.1367C148.599 74.1761 148.599 74.1761 149.744 74.2162C157.577 74.6857 162.552 78.122 167.938 83.8125C171.435 87.4204 174.963 90.8308 178.809 94.0625C180.568 95.6185 182.205 97.2011 183.848 98.875C189.078 104.439 189.078 104.439 195.77 107.703C198.479 107.758 198.479 107.758 202 107C202.495 106.01 202.495 106.01 203 105C202.348 104.974 201.695 104.948 201.023 104.922C195.212 104.545 191.654 103.768 187 100C185.824 99.1956 185.824 99.1956 184.625 98.375C184.089 97.9212 183.553 97.4675 183 97C183 96.34 183 95.68 183 95C182.34 95 181.68 95 181 95C181 94.34 181 93.68 181 93C180.188 92.6674 180.188 92.6674 179.359 92.3281C176.229 90.566 173.797 88.2439 171.25 85.75C170.743 85.2846 170.237 84.8193 169.715 84.3398C167.06 81.7418 166.038 80.3896 165.672 76.6406C165.78 75.7692 165.888 74.8978 166 74C191.777 73.5236 191.777 73.5236 197.125 77.6328C199.225 79.6611 201.116 81.771 203 84C203.63 84.7025 204.261 85.4051 204.91 86.1289C207.408 88.9238 209.777 91.6834 211.938 94.75C214.767 97.8371 217.927 99.9313 222 101C228.304 100.536 233.717 98.4007 239.57 96.1133C241.621 95.3321 243.672 94.5515 245.723 93.7715C248.936 92.5404 252.147 91.304 255.354 90.0574C258.462 88.8527 261.578 87.6691 264.695 86.4883C265.654 86.1092 266.612 85.7302 267.6 85.3397C268.498 85.0024 269.396 84.6651 270.321 84.3176C271.106 84.0142 271.891 83.7108 272.7 83.3981C276.279 82.7786 278.75 84.2226 281.746 86.0859C286.353 89.597 290.781 93.3048 295.188 97.0625C295.782 97.5689 296.376 98.0754 296.988 98.5972C307.432 107.591 307.432 107.591 309 116C309.33 114.68 309.66 113.36 310 112C317.414 112.792 323.177 118.673 328 124C331.989 129.275 335.398 134.943 338.674 140.682C339.569 142.247 340.49 143.798 341.433 145.334C344.281 150.094 345.671 153.56 345.563 159.25C345.564 160.41 345.565 161.57 345.566 162.766C344.871 166.737 343.897 168.205 341 171C338.51 172.708 335.913 174.144 333.25 175.562C332.233 176.122 332.233 176.122 331.195 176.693C329.141 177.816 327.074 178.912 325 180C324.276 180.385 323.552 180.771 322.807 181.167C321.75 181.717 321.75 181.717 320.672 182.277C320.039 182.609 319.405 182.94 318.753 183.281C317 184 317 184 314 184C314.041 183.058 314.082 182.116 314.124 181.145C314.271 177.599 314.408 174.052 314.537 170.505C314.595 168.98 314.657 167.454 314.724 165.929C315.26 153.541 314.336 142.707 310 131C310.144 133.417 310.29 135.833 310.438 138.25C310.482 138.979 310.526 139.707 310.572 140.458C310.84 144.75 311.168 149.03 311.563 153.312C313.261 173.884 313.261 173.884 307.186 182.604C302.337 186.251 297.79 185.698 291.875 185.629C290.106 185.633 290.106 185.633 288.3 185.636C285.809 185.635 283.317 185.622 280.826 185.597C277.014 185.563 273.203 185.576 269.391 185.596C266.969 185.589 264.547 185.579 262.125 185.566C260.415 185.574 260.415 185.574 258.671 185.581C250.742 185.463 250.742 185.463 246.742 182.965C245.88 181.992 245.88 181.992 245 181C245.495 179.02 245.495 179.02 246 177C246.66 177 247.32 177 248 177C248 176.34 248 175.68 248 175C250.566 172.889 253.232 170.938 255.91 168.973C266.485 159.567 268.987 146.04 272.438 132.938C272.982 130.932 273.528 128.928 274.076 126.924C275.064 123.285 276.048 119.646 277.01 116C277.202 115.273 277.394 114.547 277.592 113.799C278.074 111.982 278.074 111.982 278 110C267.178 127.739 267.178 127.739 260.469 147.113C259.15 152.422 254.147 155.7 250.164 159.086C247.169 161.735 244.421 164.602 241.664 167.496C240 169 240 169 238 169C238 169.66 238 170.32 238 171C237.34 171 236.68 171 236 171C236 171.66 236 172.32 236 173C227.366 178.453 217.496 175.964 208.043 173.98C198.9 171.882 190.718 168.297 183 163C184.479 159.11 186.435 157.849 190.023 155.863C191.039 155.291 192.054 154.718 193.1 154.128C194.181 153.529 195.262 152.93 196.375 152.312C205.082 147.354 213.299 142.441 221 136C221.526 135.56 222.053 135.12 222.595 134.667C226.133 131.698 229.629 128.684 233.109 125.648C235.143 123.876 237.182 122.109 239.223 120.344C242.818 117.233 246.41 114.117 250 111C244.218 114.634 238.863 118.643 233.563 122.938C219.147 134.553 204.528 142.345 187.38 149.243C185.533 149.987 183.691 150.741 181.848 151.495C168.735 156.659 168.735 156.659 162.092 154.332C156.304 151.678 151.163 147.809 146 144.125C144.724 143.226 144.724 143.226 143.422 142.309C140.938 140.552 138.466 138.781 136 137C135.218 136.435 134.435 135.87 133.629 135.288C132.906 134.757 132.183 134.227 131.438 133.68C130.797 133.21 130.156 132.741 129.496 132.257C128 131 128 131 127 129C126.875 125.938 126.875 125.938 127 123C128 122 128 122 131.32 121.95C132.803 121.977 134.286 122.009 135.77 122.043C137.398 122.065 139.026 122.087 140.654 122.107C143.217 122.144 145.779 122.187 148.342 122.247C158.523 122.475 167.559 122.453 177 118C177.33 117.67 177.66 117.34 178 117C177.019 117.046 176.038 117.093 175.027 117.141C161.92 117.57 148.101 116.309 138 107C118.646 86.075 118.646 86.075 118.813 77.875C119 74 119 74 120 73Z" fill="white"/>
<path d="M597.5 73.875C598.513 73.884 599.526 73.893 600.57 73.9023C603.047 73.9257 605.523 73.9585 608 74C607.585 79.288 603 86 603 86C603.759 85.2897 604.519 84.5795 605.301 83.8477C606.304 82.919 607.308 81.9907 608.313 81.0625C609.062 80.3596 609.062 80.3596 609.826 79.6426C618.247 71.891 631.393 73.8619 642.188 73.9375C644.045 73.9443 644.045 73.9443 645.939 73.9512C648.96 73.9628 651.98 73.9792 655 74C654.408 83.5026 654.408 83.5026 651 87.3125C648.02 90.7913 645.293 94.3367 642.625 98.0625C635.321 107.731 628.892 113.06 617 116C616.238 116.196 615.476 116.392 614.691 116.594C610.85 117.174 607.065 117.105 603.188 117.063C602.399 117.058 601.611 117.053 600.799 117.049C598.866 117.037 596.933 117.019 595 117C605.912 122.48 615.259 122.541 627.188 122.125C629.719 122.049 632.249 121.982 634.781 121.932C636.343 121.9 637.905 121.853 639.466 121.788C641.583 121.739 641.583 121.739 645 122C647 125 647 125 646.938 127.375C645.05 132.661 640.26 135.689 635.688 138.625C632.013 141.015 628.365 143.424 624.766 145.926C624.048 146.424 623.33 146.923 622.591 147.437C621.174 148.424 619.758 149.414 618.344 150.407C617.368 151.085 617.368 151.085 616.371 151.777C615.504 152.384 615.504 152.384 614.619 153.004C610.64 155.452 606.506 155.617 602 155C597.406 153.612 592.999 151.823 588.563 150C587.305 149.491 586.047 148.981 584.789 148.473C581.182 147.006 577.59 145.506 574 144C573.098 143.627 572.196 143.255 571.266 142.871C561.282 138.705 553.212 133.569 544.953 126.614C541.086 123.418 537.094 120.38 533.125 117.313C531.565 116.101 530.005 114.888 528.445 113.676C527.297 112.784 526.149 111.892 525 111C524.67 111.33 524.34 111.66 524 112C524.764 112.643 525.529 113.286 526.316 113.949C527.399 114.862 528.481 115.775 529.563 116.688C530.143 117.177 530.724 117.667 531.322 118.171C535.138 121.399 538.914 124.669 542.669 127.967C553.817 137.73 565.145 145.904 578.149 152.991C580.782 154.426 583.399 155.883 586 157.375C587.176 158.036 587.176 158.036 588.375 158.711C588.911 159.136 589.448 159.562 590 160C590 160.99 590 161.98 590 163C579.014 173.329 560.801 175.796 546.309 176.328C539.603 175.375 535.564 170.908 531.125 166.25C529.894 164.986 528.661 163.725 527.426 162.465C526.838 161.864 526.249 161.263 525.643 160.644C523.065 158.064 520.342 155.677 517.551 153.332C517.039 152.892 516.527 152.453 516 152C515.448 151.54 514.897 151.08 514.328 150.605C512.601 148.517 512.637 147.189 512.438 144.5C510.998 135.192 505.549 127.1 501 119C500.058 117.305 499.117 115.61 498.176 113.914C497.451 112.609 496.725 111.305 496 110C496.506 117.764 498.496 124.947 500.701 132.374C501.309 134.427 501.905 136.484 502.498 138.541C506.245 152.86 506.245 152.86 514.125 165.062C514.9 165.876 515.674 166.689 516.473 167.527C520.526 171.493 524.71 175.292 529 179C527.63 182.161 527.011 182.993 524 185C521.623 185.274 521.623 185.274 518.782 185.306C517.717 185.322 516.652 185.338 515.555 185.355C514.405 185.36 513.255 185.366 512.07 185.371C510.888 185.38 509.705 185.389 508.487 185.398C505.984 185.413 503.48 185.422 500.977 185.426C497.147 185.437 493.318 185.487 489.488 185.537C487.057 185.547 484.626 185.554 482.195 185.559C481.049 185.578 479.903 185.598 478.723 185.618C470.774 185.573 470.774 185.573 466.85 182.669C462.594 176.528 461.503 171.391 461.625 164.125C461.632 163.247 461.64 162.37 461.647 161.465C461.82 152.574 462.578 143.728 463.375 134.875C463.469 133.816 463.469 133.816 463.566 132.736C465.906 106.96 465.906 106.96 475.371 99.0078C477.082 97.6279 478.806 96.2644 480.543 94.918C482.676 93.2533 484.72 91.5368 486.75 89.75C487.307 89.2821 487.864 88.8141 488.438 88.332C489.912 87.0755 491.333 85.758 492.75 84.4375C501.079 80.7535 513.789 88.3695 522 91.4375C523.302 91.9204 524.604 92.4028 525.906 92.8848C526.544 93.1212 527.182 93.3576 527.839 93.6012C529.718 94.2967 531.597 94.9899 533.477 95.6831C535.73 96.5252 537.975 97.3869 540.211 98.2739C541.173 98.6489 542.134 99.0238 543.125 99.4102C543.953 99.7428 544.78 100.075 545.633 100.418C550.592 101.637 554.779 99.5368 559 97C561.332 94.8928 563.414 92.5986 565.5 90.25C566.314 89.3567 566.314 89.3567 567.145 88.4453C570.417 84.8472 570.417 84.8472 573.461 81.0566C576.424 77.1924 578.679 75.0962 583.707 74.208C588.309 73.7905 592.883 73.7962 597.5 73.875ZM593 93C591.661 94.118 590.329 95.2446 589 96.375C588.258 97.0015 587.515 97.628 586.75 98.2734C586.173 98.8432 585.595 99.413 585 100C584 100.5 581.5 101.5 581 101.5C576.5 103 576.42 103.32 572 104C572 105.32 572 106.64 572 108C577.296 108.686 577.296 108.686 582.066 106.688C584.14 104.869 586.079 102.979 588 101C588.679 100.332 589.359 99.6645 590.059 98.9766C591.724 97.3345 603 86 603 86C603 86 593.5 92.5 593 93Z" fill="white"/>
<path d="M409 37C414.142 40.3556 418.576 43.8644 422 49C422.773 48.9768 423.547 48.9536 424.344 48.9297C427 49 427 49 429.281 50.7578C430.013 51.539 430.746 52.3202 431.5 53.125C432.679 54.3548 432.679 54.3548 433.883 55.6094C435.544 57.4852 436.956 59.3241 438.375 61.375C441.751 64.7513 444.676 65.3208 449.258 66.3477C451.617 66.9089 453.505 67.6115 455.688 68.625C459.683 70.2347 463.687 70.2797 467.938 70.4375C475.103 70.7182 481.046 71.7637 486.699 76.3906C488.556 78.6874 488.459 80.9992 488.594 83.8672C486.963 89.7253 479.714 93.6052 475 97.0625C473.604 98.0943 472.208 99.1269 470.813 100.16C470.156 100.644 469.5 101.127 468.824 101.625C467.224 102.831 465.67 104.097 464.125 105.371C462 107 462 107 460 107C460 107.66 460 108.32 460 109C457.794 111.102 455.268 112.825 452.813 114.625C452.139 115.141 451.465 115.656 450.771 116.188C445.791 119.861 445.791 119.861 442.25 120.484C439.728 119.941 438.242 119.174 436.188 117.625C435.281 116.964 435.281 116.964 434.355 116.289C433.908 115.864 433.461 115.438 433 115C433 114.34 433 113.68 433 113C432.3 112.772 431.6 112.544 430.879 112.309C427.415 110.734 424.778 108.539 421.938 106.062C417.94 102.59 417.94 102.59 413.684 99.4492C412 98 412 98 411.258 95.9844C411.101 93.34 411.148 91.5271 412 89C415.129 85.9099 419.402 82 424 82C426.791 73.628 424.502 66.7396 421.094 58.8828C420 56 420 56 420 52C413.471 54.0072 408.25 55.9778 403.34 60.8281C402 62 402 62 400 62C396.243 70.8568 395.655 78.4611 395.521 87.9941C395.371 93.3608 395.106 97.4106 392 102C388.732 104.179 387.791 104.722 384 104C380.479 100.699 378.735 98.5056 378.363 93.6445C378.325 92.0342 378.309 90.4233 378.313 88.8125C378.268 87.1171 378.218 85.4217 378.164 83.7266C378.141 82.9135 378.118 82.1004 378.095 81.2627C377.707 71.995 375.779 65.4192 368.938 58.9375C364.494 55.2607 359.299 53.1657 354 51C353.775 48.1989 353.642 46.5435 355.215 44.1562C369.32 30.595 391.785 26.6223 409 37Z" fill="white"/>
<path d="M370 100C372.484 102.18 372.484 102.18 374.75 104.875C375.508 105.759 376.266 106.644 377.047 107.555C380.884 112.359 380.884 112.359 381.523 115.898C381 119 381 119 378.227 121.414C377.039 122.172 375.838 122.909 374.625 123.625C369.046 126.717 369.046 126.717 366 132C365.973 137.364 369.786 140.64 373.187 144.375C374.327 145.654 375.466 146.932 376.605 148.211C377.165 148.833 377.725 149.456 378.302 150.097C380.915 153.025 383.456 156.012 386 159C389.278 158.248 389.278 158.248 391 155C391.66 155 392.32 155 393 155C393.215 154.477 393.431 153.953 393.652 153.414C395.54 150.032 398.025 147.287 400.562 144.375C405.223 139.4 405.223 139.4 407.355 133.133C407.299 129.894 407.299 129.894 404.988 127.805C404.105 127.168 403.222 126.531 402.312 125.875C401.007 124.912 401.007 124.912 399.676 123.93C398.793 123.293 397.91 122.656 397 122C395.327 120.675 393.658 119.344 392 118C392.528 113.657 393.99 111.294 396.75 107.938C397.425 107.101 398.101 106.264 398.797 105.402C401.105 102.886 403.096 100.813 406 99C410.843 99.0125 413.131 100.542 416.5 103.875C421.189 108.336 426.107 112.298 431.266 116.193C437.473 120.952 437.473 120.952 439 124C438.944 142.896 417.333 161.801 405.062 174C404.138 174.909 403.213 175.819 402.26 176.756C401.382 177.62 400.503 178.484 399.598 179.375C398.809 180.146 398.02 180.917 397.207 181.711C394.929 183.995 395 184 392.5 186.5C390 188.5 389 189.5 386 191C376.466 182.79 376.466 182.79 373 179C372.5 178.5 371.5 177.5 371.5 177.5C371.5 177.5 371 177 370 176C368.633 174.609 368.633 174.609 367.125 172.75C364 170 361.61 166.719 358.522 163.905C349.059 155.115 343.054 144.306 337 133C336.439 131.953 336.439 131.953 335.867 130.885C334.549 128.02 334.535 126.116 335 123C336.762 120.899 338.299 119.349 340.375 117.625C341.187 116.917 341.187 116.917 342.016 116.195C346.89 111.983 351.917 107.956 357 104C357.878 103.287 358.756 102.574 359.66 101.84C363.519 98.8057 365.228 98.6953 370 100Z" fill="white"/>
<path d="M346 49C348.312 48.75 348.312 48.75 351 49C352.742 50.7109 352.742 50.7109 354 53C353.707 55.3672 353.707 55.3672 352.812 57.875C352.513 58.7593 352.214 59.6436 351.906 60.5547C351.23 62.3781 350.528 64.1918 349.812 66C348.626 70.3808 348.282 74.5023 349 79C351.074 81.8523 353.183 83.4657 356.113 85.3828C361.751 89.2078 361.751 89.2078 363.062 93.375C361.4 99.046 357.57 101.466 353 105C351.831 105.936 350.663 106.873 349.496 107.812C346.029 110.585 342.544 113.327 339 116C337.49 117.183 337.49 117.183 335.949 118.391C333 120 333 120 330.152 120.145C325.595 118.49 322.293 115.735 318.562 112.688C317.777 112.061 316.991 111.435 316.182 110.789C313.78 108.87 311.389 106.936 309 105C306.931 103.34 304.858 101.684 302.785 100.029C301.525 99.0204 300.268 98.0083 299.013 96.9924C295.798 94.394 292.539 91.9614 289.125 89.625C286.504 87.6819 286.057 87.1564 284.875 83.9375C285.011 80.7381 285.567 78.8525 287 76C292.855 71.0248 299.816 70.5439 307.171 70.3071C311.828 70.1426 315.634 69.5334 319.938 67.7891C322 67 322 67 324.375 66.5234C332.719 64.7764 337.632 59.2258 343 53C343.33 52.34 343.66 51.68 344 51C344.66 51 345.32 51 346 51C346 50.34 346 49.68 346 49Z" fill="white"/>
<path d="M414 170C417.211 171.339 418.578 172.425 420.121 175.535C420.677 176.613 420.677 176.613 421.245 177.712C421.639 178.487 422.032 179.263 422.438 180.062C436.354 206.17 457.335 224.914 481 242C480.21 245.85 479.138 247.037 475.938 249.375C472.345 252.004 472.345 252.004 468.871 254.785C468.212 255.33 467.554 255.876 466.875 256.438C466.005 257.178 466.005 257.178 465.117 257.934C461.854 259.577 459.601 259.489 456 259C453.682 257.266 452.028 255.794 450.125 253.688C449.61 253.144 449.094 252.601 448.563 252.041C444.553 247.758 440.777 243.286 437.133 238.688C435.741 236.934 434.32 235.203 432.867 233.5C423.71 222.734 415.725 210.913 409.313 198.312C408.822 197.361 408.822 197.361 408.322 196.39C406.054 191.736 404.204 186.941 405.602 181.777C408.025 177.421 410.66 173.711 414 170Z" fill="white"/>
<path d="M357 171C359.885 171.24 360.899 171.894 362.922 174.004C363.525 174.848 364.128 175.693 364.75 176.562C365.364 177.389 365.977 178.215 366.609 179.066C368.684 183.443 368.856 187.415 367.35 191.962C366.463 193.968 365.484 195.885 364.438 197.812C364.074 198.508 363.71 199.203 363.336 199.919C353.104 219.199 339.15 236.404 324.438 252.438C323.854 253.082 323.271 253.727 322.669 254.392C321.841 255.279 321.841 255.279 320.996 256.184C320.272 256.966 320.272 256.966 319.533 257.763C317.667 259.268 316.379 259.737 314 260C308.818 257.461 304.219 254.14 299.562 250.75C298.926 250.291 298.29 249.832 297.635 249.359C296.088 248.243 294.543 247.122 293 246C293.054 243.299 293.427 241.561 295.389 239.64C297.327 238.158 299.304 236.758 301.312 235.375C307.929 230.647 313.893 225.627 319.742 219.984C322 218 323 218 324 217.5L324.796 216.206C326.5 213.5 327.353 212.494 329.266 210.703C332.784 207.279 335.815 203.681 338.75 199.75C339.254 199.078 339.759 198.407 340.279 197.715C345.877 190.078 350.507 181.889 355.067 173.604C356 172 356 172 357 171Z" fill="white"/>
<path d="M373.812 190.5C378.373 193.627 380.611 197.337 381.863 202.688C382.362 207.705 380.646 211.424 378.5 215.875C377.952 217.058 377.952 217.058 377.394 218.265C374.894 223.521 372.049 228.302 368.539 232.957C364.465 238.365 361.777 243.402 362.008 250.266C362.025 251.074 362.041 251.882 362.059 252.715C362.102 254.39 362.154 256.064 362.215 257.738C362.338 264.793 360.841 269.843 357.25 276C355 278 355 278 352 278.563C343.318 277.89 334.946 274.09 328 269C327.116 268.379 327.116 268.379 326.215 267.746C323.753 265.89 322.141 264.297 320.812 261.5C321.21 256.196 327.814 252.395 331.625 249.063C347.555 234.699 357.994 215.952 367.048 196.78C367.397 196.056 367.746 195.332 368.105 194.586C368.42 193.924 368.735 193.262 369.059 192.58C370.384 190.355 371.283 189.802 373.812 190.5Z" fill="white"/>
<path d="M401 190C404.737 193.258 406.676 196.962 408.75 201.375C418.553 221.496 431.446 242.748 449.938 256.125C452 258 452 258 452.75 260.312C451.218 265.804 446.886 268.87 442.145 271.711C434.81 275.522 426.435 279.591 418 278C413.377 272.852 411.891 267.672 412.066 260.844C412.358 248.892 410.702 241.116 403.977 231.07C401.697 227.529 399.672 223.9 397.688 220.188C397.35 219.565 397.013 218.943 396.665 218.302C393.746 212.798 391.01 207.311 392 201C394.399 196.528 396.749 192.834 401 190Z" fill="white"/>
<path d="M383 208C385.64 208 388.28 208 391 208C391.277 208.65 391.553 209.299 391.839 209.969C393.117 212.96 394.402 215.949 395.688 218.938C396.123 219.959 396.558 220.981 397.006 222.033C399.053 226.778 401.144 231.384 403.727 235.863C406.844 241.314 407.872 246.866 409 253C409.206 254.101 409.412 255.202 409.625 256.336C410.784 263.111 411.851 270.128 411 277C408.16 279.84 405.955 279.736 402 280C398.688 279.625 398.688 279.625 396 278C393.481 269.323 393.06 260.274 392.32 251.305C391.642 244.167 390.493 238.305 387 232C382.093 240.342 381.336 248.86 380.543 258.332C380.463 259.266 380.382 260.201 380.299 261.163C380.144 263.025 380.001 264.889 379.873 266.753C379.178 275.325 379.178 275.325 376 279C372.34 280.592 368.814 280.242 365.062 279.125C361.951 275.919 362.084 272.28 362 268C362.311 264.181 362.929 260.453 363.625 256.688C363.81 255.669 363.994 254.65 364.184 253.6C365.595 246.241 367.556 239.68 371 233C371.561 231.866 372.121 230.731 372.699 229.562C373.881 227.176 375.078 224.8 376.285 222.426C378.662 217.678 380.85 212.854 383 208Z" fill="white"/>
<path d="M461 111C461.66 111.33 462.32 111.66 463 112C464.996 119.529 464.588 126.583 462.204 133.931C458.722 144.776 458.399 154.825 458.688 166.125C458.713 167.874 458.735 169.622 458.756 171.371C458.81 175.582 458.896 179.79 459 184C453.189 182.178 448.185 179.562 442.875 176.625C441.982 176.143 441.088 175.661 440.168 175.164C439.306 174.69 438.443 174.215 437.555 173.727C436.387 173.086 436.387 173.086 435.195 172.432C431.919 170.295 429.387 168.342 428.285 164.52C428.175 163.18 428.175 163.18 428.062 161.812C427.971 160.932 427.879 160.052 427.785 159.145C428.382 150.405 432.824 143.476 437.438 136.25C438.01 135.331 438.583 134.412 439.174 133.465C443.216 127.036 447.021 121.524 453.062 116.812C454.348 115.801 454.348 115.801 455.66 114.77C457.398 113.455 459.187 112.209 461 111Z" fill="white"/>
<path d="M419 56C421.633 63.5085 422.818 69.8603 421.562 77.75C418.973 81.4794 415.01 83.0497 411 85C409.929 85.5743 409.929 85.5743 408.836 86.1602C407 87 407 87 405 86.75C404.34 86.5025 403.68 86.255 403 86C402.278 85.7731 401.556 85.5462 400.812 85.3125C399 84 399 84 398 81.125C398 78 398 78 399.812 75.625C402 74 402 74 404 74C404.5 73.5 405 73 405 73C405 73 405.5 72.5 406 72C406.371 70.8244 406.371 70.8244 406.75 69.625C407.786 66.622 408.86 63.6519 410 60.6875C410.33 59.8251 410.66 58.9627 411 58.0742C412.918 54.0952 415.208 55.1018 419 56Z" fill="white"/>
<path d="M359.473 55.0547C362 56 362 56 363.371 58.6953C363.723 59.8271 364.075 60.9589 364.438 62.125C366.546 68.1971 368.916 73.9578 375 77C375.375 79.75 375.375 79.75 375 83C372.313 85.4375 372.313 85.4375 369 87C365.026 86.6287 362.194 85.1815 358.813 83.125C357.953 82.612 357.093 82.0989 356.207 81.5703C352.891 79.2108 352.071 77.3418 351.25 73.375C350.614 67.3266 351.925 61.2576 355 56C357 55 357 55 359.473 55.0547Z" fill="white"/>
<path d="M346 49C348.312 48.75 348.312 48.75 351 49C352.75 50.6875 352.75 50.6875 354 53C353.637 55.5781 353.637 55.5781 352.688 58.25C352.382 59.142 352.076 60.0341 351.762 60.9531C351.51 61.6286 351.259 62.3041 351 63C350.67 62.01 350.34 61.02 350 60C348.35 59.67 346.7 59.34 345 59C345.66 57.68 346.32 56.36 347 55C346.34 55 345.68 55 345 55C344.67 53.68 344.34 52.36 344 51C344.5 50.5 344.5 50.5 345 50.5C345.5 49.5 345.5 49.5 346 49Z" fill="white"/>
<path d="M347 187C348.32 187.33 349.64 187.66 351 188C350.67 188.66 350.34 189.32 350 190C349.34 189.67 348.68 189.34 348 189C347.742 189.731 347.484 190.462 347.219 191.215C345.956 194.102 344.493 196.134 342.5 198.562C340.26 201.3 338.573 203.846 337 207C334.875 208.75 334.875 208.75 333 210C333.33 210.66 333.66 211.32 334 212C333.01 212 332.02 212 331 212C331.61 208.667 332.779 206.676 334.871 204.031C335.445 203.295 336.02 202.559 336.611 201.801C337.214 201.042 337.817 200.282 338.438 199.5C339.627 197.992 340.813 196.482 341.996 194.969C342.524 194.303 343.052 193.637 343.595 192.951C344.973 191.037 346.01 189.136 347 187Z" fill="white"/>
<path d="M371 81C371.99 81.99 372.98 82.98 374 84C369.708 87.0658 369.708 87.0658 366.312 86.75C364 86 364 86 362 85C362 84.34 362 83.68 362 83C365.053 82.0188 366.947 82.0188 370 83C370.33 82.34 370.66 81.68 371 81Z" fill="white"/>
<path d="M583 146C583.701 146.144 584.402 146.289 585.125 146.438C588.076 147.015 591.033 147.517 594 148C594 148.66 594 149.32 594 150C596.31 150.66 598.62 151.32 601 152C596.958 153.647 594.222 152.242 590.312 150.688C588.574 150.013 588.574 150.013 586.801 149.324C584 148 584 148 583 146Z" fill="white"/>
<path d="M611 90C611.33 90.66 611.66 91.32 612 92C608.995 95.8638 606.549 98.9098 602 101C601.34 100.67 600.68 100.34 600 100C603.494 96.4037 607.111 93.1655 611 90Z" fill="white"/>
<path d="M504 122C504.99 122.33 505.98 122.66 507 123C507.879 124.777 507.879 124.777 508.562 126.938C509.459 129.729 509.878 130.878 512 133C511.01 133.33 510.02 133.66 509 134C508.159 132.567 507.327 131.128 506.5 129.688C505.804 128.487 505.804 128.487 505.094 127.262C504 125 504 125 504 122Z" fill="white"/>
<path d="M398 62C398.33 62.99 398.66 63.98 399 65C398.01 66.485 398.01 66.485 397 68C396.34 68 395.68 68 395 68C395 69.65 395 71.3 395 73C393 70 393 70 393.125 66.9375C394 64 394 64 396.062 62.625C396.702 62.4188 397.341 62.2125 398 62Z" fill="white"/>
<path d="M418.5 56.5C418.83 58.48 419.66 59.96 420 62C419.67 61.34 419.34 60.68 419 60C418.01 60.33 417.02 60.66 416 61C415.67 59.68 415.34 58.36 415 57C414.01 57.33 413.02 57.66 412 58C412 57.34 412.5 56.68 412.5 56C415.167 54.6667 415.667 55.829 418.5 56.5Z" fill="white"/>
<path d="M414 170C414.33 170.99 414.66 171.98 415 173C415.66 173.66 416.32 174.32 417 175C416.34 175.66 415.68 176.32 415 177C414.34 176.67 413.68 176.34 413 176C410.883 176.892 410.883 176.892 409 178C410.372 175.046 411.989 172.56 414 170Z" fill="white"/>
<path d="M419 46C420.562 47.625 420.562 47.625 422 50C421.688 53.25 421.688 53.25 421 56C420.67 54.68 420.34 53.36 420 52C417.69 52.33 415.38 52.66 413 53C416 51 416 51 418 50C418.652 47.9754 418.652 47.9754 419 46Z" fill="white"/>
<path d="M394 259C394.99 259.33 395.98 259.66 397 260C396.67 262.97 396.34 265.94 396 269C395.34 269 394.68 269 394 269C394 265.7 394 262.4 394 259Z" fill="white"/>
<path d="M411 238C412.32 238.33 413.64 238.66 415 239C414.34 241.64 413.68 244.28 413 247C410.71 243.565 410.822 242.015 411 238Z" fill="white"/>
<path d="M150 76C152.97 76 155.44 76.5 158.5 76.5C159.16 77.82 160.32 78.64 161 80C159.68 80 158.36 80 157 80C156.34 79.34 155.68 78.68 155 78C152.429 77.3523 152.429 77.3523 150 77C150 76.67 150 76.34 150 76Z" fill="white"/>
<path d="M322 252C322.66 252.33 323.32 252.66 324 253C322.377 254.709 320.707 256.374 319 258C318.34 258 317.68 258 317 258C317.25 256.125 317.25 256.125 318 254C319.938 252.688 319.938 252.688 322 252Z" fill="white"/>
<path d="M134 130C134.33 130.99 134.66 131.98 135 133C136.294 134.372 137.623 135.712 139 137C136.625 136.75 136.625 136.75 134 136C132.688 133.938 132.688 133.938 132 132C132.66 131.34 133.32 130.68 134 130Z" fill="white"/>
<path d="M466 179C467.485 179.99 467.485 179.99 469 181C469 181.66 469 182.32 469 183C471.64 183 474.28 183 477 183C477 183.33 477 183.66 477 184C475.542 184.054 474.084 184.093 472.625 184.125C471.813 184.148 471.001 184.171 470.164 184.195C468 184 468 184 466 182C466 181.01 466 180.02 466 179Z" fill="white"/>
<path d="M363 178C364.938 178.562 364.938 178.562 367 180C367.75 183.625 367.75 183.625 368 187C363.571 181.857 363.571 181.857 363 178Z" fill="white"/>
<path d="M276 108C277.32 108 278.64 108 280 108C279.67 108.99 279.34 109.98 279 111C278.67 110.67 278.34 110.34 278 110C277.01 111.32 276.02 112.64 275 114C274.375 112.125 274.375 112.125 274 110C274.66 109.34 275.32 108.68 276 108Z" fill="white"/>
<path d="M409 82C409.99 82.66 410.98 83.32 412 84C407.375 87 407.375 86 404 86C404.33 85.01 404.66 85.02 405 84C406.32 84 407.64 84 409 84C409 83.34 409 82.68 409 82Z" fill="white"/>
<path d="M351 50C351.99 50.99 352.98 51.98 354 53C353.34 54.32 352.68 55.64 352 57C352 56.34 352 55.68 352 55C351.34 55 350.68 55 350 55C350.33 53.35 350.66 51.7 351 50Z" fill="white"/>
</svg>
