<svg width="30" height="30" viewBox="0 0 30 30" fill="none" xmlns="http://www.w3.org/2000/svg">
                                    <g clip-path="url(#clip0_2746_50624)">
                                        <path d="M26.7265 5.67909C26.6174 5.66784 26.5074 5.66784 26.3983 5.67909H3.98097C3.83729 5.6813 3.69457 5.70285 3.55664 5.74314L15.1256 17.264L26.7265 5.67909Z" fill="white"></path>
                                        <path d="M27.9103 6.79102L16.2533 18.4C15.9533 18.6982 15.5475 18.8656 15.1244 18.8656C14.7014 18.8656 14.2956 18.6982 13.9956 18.4L2.44264 6.87908C2.40712 7.00962 2.38829 7.14412 2.3866 7.27939V23.2918C2.3866 23.7164 2.5553 24.1237 2.85559 24.424C3.15588 24.7243 3.56316 24.893 3.98783 24.893H26.4052C26.8298 24.893 27.2371 24.7243 27.5374 24.424C27.8377 24.1237 28.0064 23.7164 28.0064 23.2918V7.27939C28 7.11259 27.9676 6.94781 27.9103 6.79102ZM5.08468 23.2918H3.97182V22.1469L9.79232 16.3744L10.9212 17.5033L5.08468 23.2918ZM26.3891 23.2918H25.2683L19.4318 17.5033L20.5606 16.3744L26.3811 22.1469L26.3891 23.2918Z" fill="white"></path>
                                    </g>
                                    <defs>
                                        <clipPath id="clip0_2746_50624">
                                            <rect width="28.8223" height="28.8223" fill="white" transform="translate(0.841797 0.874756)"></rect>
                                        </clipPath>
                                    </defs>
                                </svg>