<svg width="32" height="32" viewBox="0 0 32 32" fill="none" xmlns="http://www.w3.org/2000/svg">
<path d="M12.9778 3.64601H15.3698C15.4947 3.64601 15.6144 3.59643 15.7026 3.50818C15.7909 3.41993 15.8404 3.30023 15.8404 3.17542C15.8404 3.05061 15.7909 2.93092 15.7026 2.84267C15.6144 2.75441 15.4947 2.70483 15.3698 2.70483H12.9778C12.853 2.70483 12.7333 2.75441 12.6451 2.84267C12.5568 2.93092 12.5073 3.05061 12.5073 3.17542C12.5073 3.30023 12.5568 3.41993 12.6451 3.50818C12.7333 3.59643 12.853 3.64601 12.9778 3.64601ZM10.8447 28.9806H15.111C15.2358 28.9806 15.3555 28.931 15.4438 28.8428C15.532 28.7545 15.5816 28.6348 15.5816 28.51C15.5816 28.3852 15.532 28.2655 15.4438 28.1773C15.3555 28.089 15.2358 28.0394 15.111 28.0394H10.8447C10.7199 28.0394 10.6002 28.089 10.5119 28.1773C10.4237 28.2655 10.3741 28.3852 10.3741 28.51C10.3741 28.6348 10.4237 28.7545 10.5119 28.8428C10.6002 28.931 10.7199 28.9806 10.8447 28.9806Z" fill="black"/>
<path d="M4.77882 24.2983C4.90362 24.2983 5.02332 24.2488 5.11157 24.1605C5.19982 24.0723 5.2494 23.9526 5.2494 23.8277V5.41175H20.7059V7.83246C20.7059 7.95726 20.7555 8.07696 20.8437 8.16521C20.932 8.25346 21.0517 8.30304 21.1765 8.30304C21.3013 8.30304 21.421 8.25346 21.5092 8.16521C21.5975 8.07696 21.6471 7.95726 21.6471 7.83246L21.6489 2.8141C21.6489 1.78352 20.8066 0.941162 19.7727 0.941162H6.18117C5.19764 0.941162 4.30823 1.75057 4.30823 2.81551V23.8277C4.30823 23.9526 4.35781 24.0723 4.44606 24.1605C4.53431 24.2488 4.65401 24.2983 4.77882 24.2983ZM19.7718 1.88234C20.2692 1.88234 20.7063 2.2894 20.7063 2.81551V4.47057H5.2494V2.8141C5.2494 2.30116 5.67011 1.88234 6.18258 1.88234H19.7718Z" fill="#012842"/>
<path d="M15.8819 12.798C15.9705 12.8858 16.0905 12.9347 16.2152 12.9341C16.34 12.9335 16.4595 12.8833 16.5473 12.7947L18.5143 10.8097C18.6015 10.7216 18.6505 10.6027 18.6505 10.4787C18.6505 10.3547 18.6015 10.2357 18.5143 10.1476L16.5473 8.16269C16.4585 8.0786 16.3406 8.03234 16.2183 8.0337C16.0961 8.03505 15.9792 8.08393 15.8923 8.16997C15.8055 8.25601 15.7555 8.37247 15.7531 8.4947C15.7506 8.61692 15.7958 8.73531 15.879 8.82481L17.5171 10.4789L15.8786 12.1326C15.7908 12.2213 15.7418 12.3412 15.7424 12.466C15.743 12.5907 15.7932 12.7102 15.8819 12.798ZM10.0734 8.1594C10.0295 8.11582 9.97751 8.08132 9.9203 8.05789C9.86309 8.03446 9.80181 8.02256 9.73999 8.02287C9.67817 8.02317 9.61702 8.03568 9.56004 8.05968C9.50306 8.08367 9.45139 8.11868 9.40797 8.16269L7.44138 10.1476C7.35416 10.2357 7.30524 10.3547 7.30524 10.4787C7.30524 10.6027 7.35416 10.7216 7.44138 10.8097L9.40844 12.7947C9.45138 12.8408 9.50316 12.8779 9.5607 12.9037C9.61825 12.9294 9.68038 12.9433 9.74341 12.9446C9.80644 12.9459 9.86908 12.9345 9.92762 12.9111C9.98616 12.8877 10.0394 12.8528 10.0842 12.8084C10.129 12.764 10.1644 12.7111 10.1883 12.6528C10.2123 12.5945 10.2242 12.5319 10.2235 12.4689C10.2228 12.4059 10.2095 12.3436 10.1842 12.2858C10.159 12.2281 10.1224 12.1759 10.0767 12.1326L8.43856 10.4789L10.0767 8.82481C10.1645 8.73612 10.2134 8.6162 10.2128 8.49142C10.2122 8.36664 10.162 8.24721 10.0734 8.1594ZM13.7364 6.82951L10.9741 13.7801C10.9513 13.8375 10.94 13.8989 10.9408 13.9607C10.9417 14.0225 10.9548 14.0836 10.9792 14.1403C11.0037 14.1971 11.0391 14.2485 11.0835 14.2916C11.1278 14.3346 11.1802 14.3686 11.2376 14.3914C11.2951 14.4142 11.3564 14.4255 11.4182 14.4246C11.48 14.4238 11.5411 14.4107 11.5978 14.3862C11.6546 14.3618 11.706 14.3264 11.7491 14.282C11.7922 14.2377 11.8261 14.1853 11.8489 14.1279L14.6113 7.17728C14.6574 7.06121 14.6555 6.93157 14.606 6.81689C14.5566 6.7022 14.4636 6.61186 14.3475 6.56575C14.2314 6.51963 14.1018 6.52151 13.9871 6.57098C13.8724 6.62044 13.7821 6.71344 13.736 6.82951H13.7364ZM21.1788 15.5481C19.8 15.5481 18.68 16.6681 18.68 18.0469C18.68 19.4389 19.815 20.5457 21.1788 20.5457C22.5369 20.5457 23.6729 19.4408 23.6729 18.0469C23.6729 16.6681 22.5529 15.5481 21.1788 15.5481ZM21.6494 19.5293V17.7363C21.6494 17.4775 21.4376 17.2657 21.1788 17.2657C20.9153 17.2657 20.7082 17.4775 20.7082 17.7363V19.534C20.3545 19.4207 20.0528 19.1848 19.8575 18.8689C19.6622 18.5529 19.586 18.1777 19.6427 17.8106C19.6995 17.4435 19.8854 17.1087 20.167 16.8665C20.4486 16.6243 20.8074 16.4905 21.1788 16.4893C22.0353 16.4893 22.7317 17.1905 22.7317 18.0469C22.7317 18.7434 22.2753 19.3316 21.6494 19.5293Z" fill="#005BAA"/>
<path d="M27.2729 16.5601L26.1153 16.4283C26.0259 16.1554 25.9129 15.8871 25.7765 15.6283L26.4541 14.6683C26.5906 14.4848 26.5671 14.2259 26.4071 14.0659L25.0565 12.7201C24.9752 12.6376 24.8663 12.5881 24.7507 12.5812C24.6352 12.5742 24.5211 12.6103 24.4306 12.6824L23.5223 13.4118C23.2635 13.2801 22.9953 13.1718 22.7176 13.0871L22.5247 11.9248C22.5058 11.8151 22.4486 11.7157 22.3633 11.6441C22.278 11.5726 22.1701 11.5337 22.0588 11.5342H20.1529C19.9129 11.5342 19.7106 11.713 19.6823 11.953L19.5553 13.1154C19.2776 13.2048 19.0141 13.3177 18.76 13.4495L17.7953 12.7671C17.7052 12.7025 17.595 12.6722 17.4845 12.6817C17.3741 12.6912 17.2707 12.7399 17.1929 12.8189L15.8471 14.1648C15.6776 14.3342 15.6635 14.6024 15.8141 14.7907L16.5388 15.7036C16.4071 15.9624 16.2988 16.2307 16.2141 16.5083L15.0565 16.7012C14.8306 16.7436 14.6612 16.9365 14.6612 17.1671V19.073C14.6612 19.313 14.8447 19.5107 15.08 19.5389L16.2376 19.6707C16.3271 19.9483 16.4447 20.2165 16.5765 20.4707L15.8988 21.4259C15.7671 21.6142 15.7859 21.8683 15.9506 22.033L17.2965 23.3789C17.4659 23.5483 17.7341 23.5624 17.9223 23.4118L18.8353 22.6871C19.0941 22.8142 19.3576 22.9224 19.6353 23.0071L19.8282 24.1695C19.8461 24.28 19.9029 24.3806 19.9883 24.453C20.0737 24.5255 20.1821 24.5651 20.2941 24.5648H20.7082V25.6048H4.77882C4.51999 25.6048 4.30823 25.8165 4.30823 26.0754V29.1859C4.30947 29.6823 4.5072 30.158 4.85817 30.5089C5.20915 30.8599 5.68482 31.0576 6.18117 31.0589H19.7718C20.8071 31.0589 21.6494 30.2165 21.6494 29.1859V24.5648H22.2C22.44 24.5648 22.6423 24.3859 22.6706 24.1459L22.8023 22.9836C23.076 22.8938 23.3419 22.782 23.5976 22.6495L24.5576 23.3318C24.7459 23.4636 25 23.4401 25.1647 23.2801L26.5059 21.9295C26.6753 21.7601 26.6894 21.4918 26.5388 21.3083L25.8141 20.3954C25.9459 20.1318 26.0541 19.8636 26.1388 19.5907L27.2965 19.393C27.5223 19.3554 27.6918 19.1577 27.6918 18.9318V17.0259C27.6918 16.7859 27.5129 16.5836 27.2729 16.5601ZM20.7082 29.1859C20.7082 29.6989 20.2894 30.1177 19.7718 30.1177H6.18117C5.66823 30.1177 5.2494 29.6989 5.2494 29.1859V26.5459H20.7082V29.1859ZM26.7506 18.5318L25.6871 18.7107C25.4988 18.7436 25.3529 18.8801 25.3059 19.0683C25.2118 19.4636 25.0565 19.8448 24.8494 20.2071C24.7506 20.3718 24.7647 20.5836 24.8871 20.7342L25.5412 21.5624L24.7788 22.3342L23.8941 21.7036C23.8187 21.6509 23.7294 21.6214 23.6374 21.6189C23.5454 21.6164 23.4547 21.641 23.3765 21.6895C23.0329 21.9012 22.6565 22.0612 22.2565 22.1601C22.0635 22.2071 21.9223 22.3718 21.8988 22.5648L21.7812 23.6236H20.6894L20.5106 22.5554C20.4959 22.4646 20.4544 22.3803 20.3916 22.3133C20.3287 22.2462 20.2472 22.1994 20.1576 22.1789C19.7623 22.0801 19.3812 21.9248 19.0282 21.7177C18.9463 21.6692 18.8515 21.6467 18.7565 21.6535C18.6615 21.6602 18.5708 21.6957 18.4965 21.7554L17.6635 22.4142L16.8965 21.6471L17.5176 20.7765C17.6179 20.6349 17.6353 20.4255 17.5365 20.2495C17.3247 19.9059 17.16 19.5248 17.0565 19.1201C17.0337 19.0279 16.9831 18.945 16.9115 18.8827C16.8399 18.8204 16.7509 18.7817 16.6565 18.7718L15.6023 18.6495V17.5671L16.6659 17.3883C16.8541 17.3554 17.0047 17.2142 17.0471 17.0307C17.1412 16.6307 17.2965 16.2495 17.5082 15.9012C17.6071 15.7318 17.5976 15.5201 17.4753 15.3648L16.8118 14.5318L17.5788 13.7648L18.4588 14.3907C18.5338 14.4441 18.6228 14.4744 18.7148 14.4777C18.8068 14.481 18.8978 14.4573 18.9765 14.4095C19.32 14.1977 19.7012 14.0377 20.1059 13.9342C20.2941 13.8871 20.4306 13.7271 20.4541 13.5342L20.5718 12.4754H21.6635L21.8423 13.5389C21.8753 13.7271 22.0118 13.8777 22.1953 13.9201C22.5953 14.0142 22.9765 14.1695 23.3294 14.3812C23.4988 14.4801 23.7106 14.4659 23.8612 14.3436L24.6894 13.6801L25.4565 14.4518L24.8353 15.3271C24.7365 15.4669 24.7162 15.6711 24.8165 15.8495C25.0329 16.2024 25.1929 16.5836 25.2918 16.9742C25.3388 17.1624 25.4988 17.3036 25.6965 17.3271L26.7506 17.4448V18.5318Z" fill="#012842"/>
</svg>
