<svg width="30" height="30" viewBox="0 0 30 30" fill="none" xmlns="http://www.w3.org/2000/svg">
                                    <path d="M28.3832 17.9968C30.4469 8.75722 22.3346 0.370559 12.7991 1.96971C7.64003 -1.22859 0.773071 2.39615 0.773071 8.54399C0.773071 9.96546 1.16445 11.3159 1.84047 12.453C-0.0452713 21.7281 8.10257 30.0082 17.638 28.2669C24.3627 31.8205 31.7633 24.7487 28.3832 17.9968ZM19.3459 23.576C16.8553 24.6066 12.728 24.6066 10.2374 23.2917C6.67937 21.4083 6.07451 17.1439 9.1344 17.1439C11.4471 17.1439 10.6999 19.8447 13.0482 20.9108C14.1156 21.4083 16.4283 21.4438 17.7448 20.5554C19.0612 19.667 18.9545 18.281 18.2429 17.6414C16.3572 15.9001 10.9134 16.5753 8.42279 13.5191C7.35539 12.2043 7.14191 9.85885 8.45837 8.15309C10.7711 5.16801 17.5669 4.99033 20.4845 7.22914C23.1885 9.3258 22.4414 12.0621 20.271 12.0621C17.6736 12.0621 19.0257 8.6506 14.7916 8.6506C11.7317 8.6506 10.522 10.8183 12.6924 11.8844C15.61 13.377 23.0462 12.8795 23.0462 18.5653C23.0462 20.9108 21.5874 22.6521 19.3459 23.576Z" fill="white"></path>
                                </svg>