<svg width="32" height="32" viewBox="0 0 32 32" fill="none" xmlns="http://www.w3.org/2000/svg">
<g clip-path="url(#clip0_2461_70748)">
<path d="M30.27 3.78955C30.4636 3.78955 30.6493 3.86646 30.7862 4.00336C30.9231 4.14026 31 4.32594 31 4.51955V23.2096C31 23.4032 30.9231 23.5888 30.7862 23.7257C30.6493 23.8626 30.4636 23.9396 30.27 23.9396H1.73C1.53639 23.9396 1.35072 23.8626 1.21381 23.7257C1.07691 23.5888 1 23.4032 1 23.2096V4.51955C1 4.32594 1.07691 4.14026 1.21381 4.00336C1.35072 3.86646 1.53639 3.78955 1.73 3.78955H30.27ZM30.27 2.78955H1.73C1.27118 2.78955 0.831144 2.97182 0.506706 3.29626C0.182268 3.6207 0 4.06073 0 4.51955V23.2096C0.00262479 23.6676 0.185735 24.1061 0.509605 24.4299C0.833476 24.7538 1.27198 24.9369 1.73 24.9396H30.27C30.728 24.9369 31.1665 24.7538 31.4904 24.4299C31.8143 24.1061 31.9974 23.6676 32 23.2096V4.51955C32 4.06073 31.8177 3.6207 31.4933 3.29626C31.1689 2.97182 30.7288 2.78955 30.27 2.78955Z" fill="#012842"/>
<path d="M32 20.1396H0.5V21.1396H32V20.1396Z" fill="#012842"/>
<path d="M19.5799 24.7095H18.5799V28.7095H19.5799V24.7095Z" fill="#012842"/>
<path d="M13.42 24.7095H12.42V28.7095H13.42V24.7095Z" fill="#012842"/>
<path d="M23.58 29.2095H8.42004C8.28744 29.2095 8.16026 29.1568 8.06649 29.063C7.97272 28.9693 7.92004 28.8421 7.92004 28.7095C7.92004 28.5769 7.97272 28.4497 8.06649 28.3559C8.16026 28.2622 8.28744 28.2095 8.42004 28.2095H23.58C23.7127 28.2095 23.8398 28.2622 23.9336 28.3559C24.0274 28.4497 24.08 28.5769 24.08 28.7095C24.08 28.8421 24.0274 28.9693 23.9336 29.063C23.8398 29.1568 23.7127 29.2095 23.58 29.2095Z" fill="#012842"/>
<g clip-path="url(#clip1_2461_70748)">
<path d="M36.9262 24.4864H29.8739C29.6869 24.4864 29.5075 24.4121 29.3753 24.2798C29.243 24.1476 29.1687 23.9682 29.1687 23.7812C29.1687 23.5941 29.243 23.4147 29.3753 23.2825C29.5075 23.1502 29.6869 23.0759 29.8739 23.0759H36.9262C37.1132 23.0759 37.2926 23.1502 37.4248 23.2825C37.5571 23.4147 37.6314 23.5941 37.6314 23.7812C37.6314 23.9682 37.5571 24.1476 37.4248 24.2798C37.2926 24.4121 37.1132 24.4864 36.9262 24.4864Z" fill="#0066B3"/>
</g>
<g clip-path="url(#clip2_2461_70748)">
<path d="M30.1138 12.992H25.1772C24.9902 12.992 24.8108 12.9177 24.6785 12.7854C24.5463 12.6532 24.472 12.4738 24.472 12.2868C24.4756 12.1009 24.5511 11.9236 24.6825 11.7921C24.814 11.6606 24.9913 11.5852 25.1772 11.5815H30.1138C30.3008 11.5815 30.4802 11.6558 30.6124 11.7881C30.7447 11.9204 30.819 12.0997 30.819 12.2868C30.819 12.4738 30.7447 12.6532 30.6124 12.7854C30.4802 12.9177 30.3008 12.992 30.1138 12.992Z" fill="#0066B3"/>
</g>
<g clip-path="url(#clip3_2461_70748)">
<path d="M36.8274 10.3819H25.1771C24.99 10.3819 24.8106 10.3076 24.6784 10.1753C24.5461 10.0431 24.4718 9.8637 24.4718 9.67666C24.4718 9.48962 24.5461 9.31025 24.6784 9.17799C24.8106 9.04574 24.99 8.97144 25.1771 8.97144H36.8979C37.0849 8.97144 37.2643 9.04574 37.3965 9.17799C37.5288 9.31025 37.6031 9.48962 37.6031 9.67666C37.6036 9.77552 37.5833 9.87337 37.5435 9.96388C37.5038 10.0544 37.4454 10.1355 37.3723 10.202C37.2991 10.2685 37.2128 10.3189 37.1189 10.3499C37.0251 10.3809 36.9257 10.3918 36.8274 10.3819Z" fill="#0066B3"/>
</g>
<g clip-path="url(#clip4_2461_70748)">
<path d="M14.9089 24.4864H7.85665C7.66961 24.4864 7.49024 24.4121 7.35798 24.2798C7.22573 24.1476 7.15143 23.9682 7.15143 23.7812C7.15143 23.5941 7.22573 23.4147 7.35798 23.2825C7.49024 23.1502 7.66961 23.0759 7.85665 23.0759H14.9089C15.0959 23.0759 15.2753 23.1502 15.4076 23.2825C15.5398 23.4147 15.6141 23.5941 15.6141 23.7812C15.6141 23.9682 15.5398 24.1476 15.4076 24.2798C15.2753 24.4121 15.0959 24.4864 14.9089 24.4864Z" fill="#0066B3"/>
</g>
<g clip-path="url(#clip5_2461_70748)">
<path d="M14.9089 21.6651H7.85662C7.66958 21.6651 7.49021 21.5908 7.35795 21.4585C7.2257 21.3263 7.1514 21.1469 7.1514 20.9599C7.1514 20.7728 7.2257 20.5934 7.35795 20.4612C7.49021 20.3289 7.66958 20.2546 7.85662 20.2546H14.9089C15.0959 20.2546 15.2753 20.3289 15.4075 20.4612C15.5398 20.5934 15.6141 20.7728 15.6141 20.9599C15.6141 21.1469 15.5398 21.3263 15.4075 21.4585C15.2753 21.5908 15.0959 21.6651 14.9089 21.6651Z" fill="#0066B3"/>
</g>
<g clip-path="url(#clip6_2461_70748)">
<path d="M19.0838 15.319H8.39259C8.0447 15.319 7.71106 15.1808 7.46507 14.9348C7.21907 14.6888 7.08087 14.3551 7.08087 14.0073V10.3542C7.08087 10.0063 7.21907 9.67267 7.46507 9.42668C7.71106 9.18068 8.0447 9.04248 8.39259 9.04248H19.0838C19.256 9.04248 19.4266 9.07641 19.5858 9.14233C19.7449 9.20825 19.8895 9.30487 20.0113 9.42668C20.1331 9.54848 20.2297 9.69308 20.2956 9.85222C20.3616 10.0114 20.3955 10.1819 20.3955 10.3542V13.9085C20.4113 14.0894 20.389 14.2715 20.33 14.4432C20.271 14.6149 20.1766 14.7723 20.053 14.9052C19.9294 15.0381 19.7793 15.1436 19.6123 15.2149C19.4453 15.2862 19.2653 15.3216 19.0838 15.319ZM8.49132 13.9085H18.9851V10.3824H8.49132V13.9085Z" fill="#0066B3"/>
</g>
</g>
<defs>
<clipPath id="clip0_2461_70748">
<rect width="32" height="32" fill="white"/>
</clipPath>
<clipPath id="clip1_2461_70748">
<rect x="29.1687" y="23.0759" width="8.46268" height="1.41045" rx="0.705224" fill="white"/>
</clipPath>
<clipPath id="clip2_2461_70748">
<rect x="24.472" y="11.5815" width="6.34701" height="1.41045" rx="0.705224" fill="white"/>
</clipPath>
<clipPath id="clip3_2461_70748">
<rect x="24.4718" y="8.97144" width="13.1313" height="1.41398" rx="0.706992" fill="white"/>
</clipPath>
<clipPath id="clip4_2461_70748">
<rect x="7.15143" y="23.0759" width="8.46268" height="1.41045" rx="0.705224" fill="white"/>
</clipPath>
<clipPath id="clip5_2461_70748">
<rect x="7.1514" y="20.2546" width="8.46268" height="1.41045" rx="0.705224" fill="white"/>
</clipPath>
<clipPath id="clip6_2461_70748">
<rect width="13.3196" height="6.27663" fill="white" transform="translate(7.08087 9.04248)"/>
</clipPath>
</defs>
</svg>
