<svg width="32" height="32" viewBox="0 0 32 32" fill="none" xmlns="http://www.w3.org/2000/svg">
<g clip-path="url(#clip0_2483_50095)">
<path d="M30.27 2.25H1.73001C1.49981 2.25129 1.27215 2.29825 1.06023 2.38815C0.8483 2.47805 0.656317 2.60912 0.495407 2.77375C0.334497 2.93838 0.207855 3.1333 0.122818 3.34723C0.0377807 3.56115 -0.00395769 3.78983 1.50044e-05 4.02V28.02C0.0026398 28.478 0.185757 28.9165 0.509628 29.2404C0.833499 29.5643 1.272 29.7474 1.73001 29.75H30.27C30.728 29.7474 31.1665 29.5643 31.4904 29.2404C31.8143 28.9165 31.9974 28.478 32 28.02V4.02C32.004 3.78983 31.9622 3.56115 31.8772 3.34723C31.7922 3.1333 31.6655 2.93838 31.5046 2.77375C31.3437 2.60912 31.1517 2.47805 30.9398 2.38815C30.7279 2.29825 30.5002 2.25129 30.27 2.25ZM31 28.02C31 28.1159 30.9811 28.2108 30.9444 28.2994C30.9078 28.3879 30.854 28.4684 30.7862 28.5362C30.7184 28.604 30.6379 28.6577 30.5494 28.6944C30.4608 28.7311 30.3659 28.75 30.27 28.75H1.73001C1.63415 28.75 1.53922 28.7311 1.45065 28.6944C1.36209 28.6577 1.28161 28.604 1.21382 28.5362C1.14603 28.4684 1.09227 28.3879 1.05559 28.2994C1.0189 28.2108 1.00002 28.1159 1.00002 28.02V4.02C1.00002 3.82639 1.07692 3.64071 1.21382 3.50381C1.35072 3.36691 1.5364 3.29 1.73001 3.29H30.27C30.4636 3.29 30.6493 3.36691 30.7862 3.50381C30.9231 3.64071 31 3.82639 31 4.02V28.02Z" fill="#012842"/>
<path d="M2.77994 5.9394C3.13893 5.9394 3.42994 5.64839 3.42994 5.2894C3.42994 4.93042 3.13893 4.6394 2.77994 4.6394C2.42096 4.6394 2.12994 4.93042 2.12994 5.2894C2.12994 5.64839 2.42096 5.9394 2.77994 5.9394Z" fill="#0066B3"/>
<path d="M4.77994 5.9394C5.13893 5.9394 5.42994 5.64839 5.42994 5.2894C5.42994 4.93042 5.13893 4.6394 4.77994 4.6394C4.42096 4.6394 4.12994 4.93042 4.12994 5.2894C4.12994 5.64839 4.42096 5.9394 4.77994 5.9394Z" fill="#0066B3"/>
<path d="M6.77994 5.9394C7.13893 5.9394 7.42994 5.64839 7.42994 5.2894C7.42994 4.93042 7.13893 4.6394 6.77994 4.6394C6.42096 4.6394 6.12994 4.93042 6.12994 5.2894C6.12994 5.64839 6.42096 5.9394 6.77994 5.9394Z" fill="#0066B3"/>
<path d="M31.5 6.68018H0.5V7.68018H31.5V6.68018Z" fill="#012842"/>
<path d="M21.5302 16.9459C21.5306 17.0076 21.5173 17.0687 21.4913 17.1247C21.4654 17.1807 21.4274 17.2302 21.38 17.2698L18.2198 19.8375C18.147 19.8928 18.0584 19.9233 17.967 19.9244C17.9086 19.9235 17.851 19.9104 17.7979 19.8859C17.7448 19.8614 17.6975 19.8261 17.6589 19.7822C17.5962 19.6981 17.5654 19.5945 17.572 19.4899C17.5868 19.3866 17.6371 19.2916 17.7142 19.2213L20.4873 16.9696L17.7379 14.8996C17.6558 14.8355 17.6017 14.7422 17.587 14.639C17.5722 14.5359 17.598 14.4311 17.6589 14.3466C17.723 14.2645 17.8164 14.2104 17.9195 14.1957C18.0226 14.181 18.1274 14.2067 18.2119 14.2676L21.3721 16.6378C21.4206 16.6733 21.4601 16.7197 21.4875 16.7732C21.5149 16.8267 21.5295 16.8858 21.5302 16.9459Z" fill="#0066B3"/>
<g clip-path="url(#clip1_2483_50095)">
<path d="M14.4198 19.4896C14.4264 19.5942 14.3956 19.6978 14.3329 19.7819C14.2943 19.8258 14.247 19.8611 14.1939 19.8856C14.1408 19.9101 14.0832 19.9232 14.0248 19.9241C13.9356 19.9242 13.8491 19.8935 13.7799 19.8372L10.6197 17.2695C10.5723 17.2299 10.5343 17.1803 10.5084 17.1243C10.4824 17.0683 10.4692 17.0073 10.4696 16.9456C10.4721 16.8828 10.4883 16.8213 10.517 16.7654C10.5456 16.7095 10.586 16.6604 10.6355 16.6217L13.7957 14.2515C13.8805 14.191 13.9842 14.1629 14.088 14.1725C14.1398 14.1802 14.1895 14.1982 14.2342 14.2253C14.279 14.2525 14.3179 14.2882 14.3487 14.3305C14.4096 14.415 14.4354 14.5198 14.4206 14.6229C14.4059 14.726 14.3518 14.8194 14.2697 14.8835L11.5124 16.9535L14.2855 19.2051C14.363 19.2807 14.4107 19.3817 14.4198 19.4896Z" fill="#0066B3"/>
</g>
<g clip-path="url(#clip2_2483_50095)">
<path d="M17.58 13.1137L15.2098 21.4487C15.1859 21.5308 15.136 21.6029 15.0676 21.6542C14.9993 21.7054 14.9161 21.7332 14.8306 21.7332C14.7941 21.7408 14.7565 21.7408 14.72 21.7332C14.6197 21.7054 14.5345 21.6393 14.4827 21.549C14.4309 21.4588 14.4168 21.3518 14.4435 21.2512L16.8136 12.9083C16.8281 12.8582 16.8522 12.8115 16.8848 12.7708C16.9173 12.7301 16.9576 12.6963 17.0033 12.6712C17.0994 12.6317 17.2073 12.6317 17.3035 12.6712C17.3955 12.6988 17.4743 12.7589 17.5252 12.8403C17.5761 12.9217 17.5956 13.0189 17.58 13.1137Z" fill="#0066B3"/>
</g>
</g>
<defs>
<clipPath id="clip0_2483_50095">
<rect width="32" height="32" fill="white"/>
</clipPath>
<clipPath id="clip1_2483_50095">
<rect width="3.95513" height="5.75344" fill="white" transform="translate(10.4695 14.1707)"/>
</clipPath>
<clipPath id="clip2_2483_50095">
<rect width="3.15492" height="9.09732" fill="white" transform="translate(14.4303 12.6416)"/>
</clipPath>
</defs>
</svg>
