<svg width="30" height="30" viewBox="0 0 30 30" fill="none" xmlns="http://www.w3.org/2000/svg">
                                    <path d="M25.0445 4.91154C23.7384 3.59381 22.1827 2.54902 20.468 1.8381C18.7534 1.12719 16.9142 0.764377 15.0577 0.770837C7.27903 0.770837 0.93929 7.10284 0.93929 14.872C0.93929 17.3621 1.59463 19.7811 2.81984 21.9155L0.825317 29.2293L8.30479 27.2656C10.3705 28.3897 12.6927 28.9874 15.0577 28.9874C22.8363 28.9874 29.1761 22.6554 29.1761 14.8862C29.1761 11.1155 27.7087 7.5724 25.0445 4.91154ZM15.0577 26.5969C12.9492 26.5969 10.8834 26.0277 9.0741 24.9605L8.6467 24.7044L4.20176 25.8712L5.38423 21.5455L5.0993 21.1044C3.92787 19.236 3.30585 17.0764 3.30423 14.872C3.30423 8.41193 8.57547 3.14712 15.0434 3.14712C18.1777 3.14712 21.1267 4.37083 23.335 6.59059C24.4284 7.67765 25.2949 8.97065 25.8842 10.3947C26.4736 11.8187 26.7741 13.3454 26.7684 14.8862C26.7969 21.3463 21.5256 26.5969 15.0577 26.5969ZM21.4971 17.8317C21.141 17.6609 19.4029 16.8072 19.0895 16.6791C18.7618 16.5653 18.5338 16.5084 18.2917 16.8499C18.0495 17.2056 17.3799 18.0024 17.1804 18.2301C16.981 18.472 16.7673 18.5004 16.4111 18.3155C16.0549 18.1447 14.9152 17.7605 13.576 16.5653C12.5218 15.6261 11.8237 14.4736 11.61 14.1178C11.4105 13.7621 11.5815 13.5771 11.7667 13.3922C11.9234 13.2356 12.1229 12.9795 12.2938 12.7803C12.4648 12.5811 12.536 12.4246 12.65 12.1969C12.764 11.955 12.707 11.7558 12.6215 11.585C12.536 11.4143 11.8237 9.67833 11.5388 8.96687C11.2538 8.28386 10.9547 8.36924 10.741 8.35501H10.0571C9.81493 8.35501 9.44451 8.44038 9.11684 8.79611C8.80342 9.15185 7.89163 10.0056 7.89163 11.7416C7.89163 13.4775 9.15958 15.1566 9.33054 15.3842C9.5015 15.6261 11.8237 19.1834 15.3569 20.706C16.1974 21.0759 16.8527 21.2894 17.3656 21.4459C18.2062 21.7162 18.9755 21.6736 19.5881 21.5882C20.2719 21.4886 21.6823 20.7344 21.9673 19.9091C22.2665 19.0838 22.2665 18.3866 22.1667 18.2301C22.067 18.0736 21.8533 18.0024 21.4971 17.8317Z" fill="white"></path>
                                </svg>